<?xml version="1.0" encoding="UTF-8" standalone="no"?>
<!-- Created with Inkscape (http://www.inkscape.org/) -->
<svg xmlns:dc="http://purl.org/dc/elements/1.1/" xmlns:cc="http://creativecommons.org/ns#" xmlns:rdf="http://www.w3.org/1999/02/22-rdf-syntax-ns#" xmlns:svg="http://www.w3.org/2000/svg" xmlns="http://www.w3.org/2000/svg" xmlns:xlink="http://www.w3.org/1999/xlink" xmlns:sodipodi="http://sodipodi.sourceforge.net/DTD/sodipodi-0.dtd" xmlns:inkscape="http://www.inkscape.org/namespaces/inkscape" width="715.13171" height="719.16058" id="svg2997" version="1.1" inkscape:version="0.48.1 r9760" sodipodi:docname="1 euro.svg">
  <defs id="defs2999">
    <linearGradient id="linearGradient8778">
      <stop style="stop-color:#e6e6e6;stop-opacity:1;" offset="0" id="stop8780"/>
      <stop style="stop-color:#cccccc;stop-opacity:0.74590164;" offset="1" id="stop8782"/>
    </linearGradient>
    <linearGradient id="linearGradient8768">
      <stop style="stop-color:#ff7f2a;stop-opacity:1;" offset="0" id="stop8770"/>
      <stop style="stop-color:#ff7f2a;stop-opacity:0;" offset="1" id="stop8772"/>
    </linearGradient>
    <linearGradient inkscape:collect="always" xlink:href="#linearGradient8778" id="linearGradient8812" x1="-224.47701" y1="129.08275" x2="1012.396" y2="129.08275" gradientUnits="userSpaceOnUse"/>
    <filter id="filter8814" inkscape:label="Relief print" inkscape:menu="Bumps" inkscape:menu-tooltip="Bumps effect with a bevel, color flood and complex lighting" color-interpolation-filters="sRGB">
      <feGaussianBlur id="feGaussianBlur8816" stdDeviation="5" result="result8"/>
      <feComposite id="feComposite8818" in2="result8" result="result6" in="SourceGraphic" operator="in"/>
      <feComposite id="feComposite8820" in2="result6" operator="in" result="result11"/>
      <feFlood id="feFlood8822" result="result10" in="result11" flood-opacity="1" flood-color="rgb(255,255,255)"/>
      <feBlend id="feBlend8824" in2="result11" mode="multiply" in="result10" result="result12"/>
      <feComposite id="feComposite8826" in2="SourceGraphic" result="fbSourceGraphic" operator="in" in="result12"/>
      <feFlood id="feFlood8828" result="result6" flood-color="rgb(75,101,154)" in="fbSourceGraphic"/>
      <feComposite id="feComposite8830" in2="result6" k3="0.3" k2="0.3" k1="0.5" operator="arithmetic" result="result2" in="fbSourceGraphic" k4="0"/>
      <feColorMatrix id="feColorMatrix8832" result="fbSourceGraphicAlpha" in="result2" values="1 0 0 -1 0 1 0 1 -1 0 1 0 0 -1 0 -0.8 -1 0 3.9 -2.7 " type="matrix"/>
      <feGaussianBlur id="feGaussianBlur8834" result="result0" in="fbSourceGraphicAlpha" stdDeviation="0.5"/>
      <feDiffuseLighting id="feDiffuseLighting8836" lighting-color="#ffffff" diffuseConstant="0.69999999" surfaceScale="50" result="result13" in="result0">
        <feDistantLight id="feDistantLight8838" elevation="20" azimuth="225"/>
      </feDiffuseLighting>
      <feSpecularLighting id="feSpecularLighting8840" specularExponent="20" specularConstant="0.69999999" surfaceScale="10" lighting-color="#ffffff" result="result1" in="result0">
        <feDistantLight id="feDistantLight8842" elevation="45" azimuth="225"/>
      </feSpecularLighting>
      <feBlend id="feBlend8844" in2="SourceGraphic" mode="screen" result="result5" in="result13"/>
      <feComposite id="feComposite8846" in2="result5" in="result1" k3="1" k2="1" operator="arithmetic" result="result9" k1="0" k4="0"/>
      <feComposite id="feComposite8848" in2="SourceGraphic" operator="in"/>
    </filter>
    <filter id="filter8940" inkscape:label="Drop shadow" inkscape:menu="Bumps" inkscape:menu-tooltip="Highly flexible bump combining diffuse and specular lightings" color-interpolation-filters="sRGB" width="1.5" height="1.5" x="-0.25" y="-0.25">
      <feColorMatrix id="feColorMatrix8942" result="fbSourceGraphicAlpha" in="SourceGraphic" values="1 0 0 -1 0 1 0 1 -1 0 1 0 0 -1 0 -0.8 -1 0 3.7 -2.4 "/>
      <feGaussianBlur id="feGaussianBlur8944" stdDeviation="0.5" in="fbSourceGraphicAlpha" result="result0"/>
      <feSpecularLighting id="feSpecularLighting8946" result="result8" specularConstant="0.75" specularExponent="6" in="result0" surfaceScale="7">
        <feDistantLight id="feDistantLight8948" azimuth="235" elevation="15"/>
      </feSpecularLighting>
      <feDiffuseLighting id="feDiffuseLighting8950" surfaceScale="20" diffuseConstant="0.2" result="result6" lighting-color="#ffffff" in="result0">
        <feDistantLight id="feDistantLight8952" azimuth="235" elevation="25"/>
      </feDiffuseLighting>
      <feBlend id="feBlend8954" in2="SourceGraphic" result="result7" mode="screen"/>
      <feComposite id="feComposite8956" in2="result7" operator="arithmetic" k2="1" k3="1" in="result8" result="result9" k1="0" k4="0"/>
      <feComposite id="feComposite8958" in2="SourceGraphic" operator="in" result="fbSourceGraphic" in="result9"/>
      <feColorMatrix result="fbSourceGraphicAlpha" in="fbSourceGraphic" values="0 0 0 -1 0 0 0 0 -1 0 0 0 0 -1 0 0 0 0 1 0" id="feColorMatrix9000"/>
      <feGaussianBlur id="feGaussianBlur9002" in="fbSourceGraphicAlpha" stdDeviation="2" result="blur"/>
      <feColorMatrix id="feColorMatrix9004" result="bluralpha" type="matrix" values="1 0 0 0 0 0 1 0 0 0 0 0 1 0 0 0 0 0 0.5 0 "/>
      <feOffset id="feOffset9006" in="bluralpha" dx="4" dy="4" result="offsetBlur"/>
      <feMerge id="feMerge9008">
        <feMergeNode id="feMergeNode9010" in="offsetBlur"/>
        <feMergeNode id="feMergeNode9012" in="fbSourceGraphic"/>
      </feMerge>
    </filter>
    <filter id="filter8960" inkscape:label="Drop shadow" inkscape:menu="Bumps" inkscape:menu-tooltip="Highly flexible bump combining diffuse and specular lightings" color-interpolation-filters="sRGB" width="1.5" height="1.5" x="-0.25" y="-0.25">
      <feColorMatrix id="feColorMatrix8962" result="fbSourceGraphicAlpha" in="SourceGraphic" values="1 0 0 -1 0 1 0 1 -1 0 1 0 0 -1 0 -0.8 -1 0 3.7 -2.4 "/>
      <feGaussianBlur id="feGaussianBlur8964" stdDeviation="0.5" in="fbSourceGraphicAlpha" result="result0"/>
      <feSpecularLighting id="feSpecularLighting8966" result="result8" specularConstant="0.75" specularExponent="6" in="result0" surfaceScale="7">
        <feDistantLight id="feDistantLight8968" azimuth="235" elevation="15"/>
      </feSpecularLighting>
      <feDiffuseLighting id="feDiffuseLighting8970" surfaceScale="20" diffuseConstant="0.2" result="result6" lighting-color="#ffffff" in="result0">
        <feDistantLight id="feDistantLight8972" azimuth="235" elevation="25"/>
      </feDiffuseLighting>
      <feBlend id="feBlend8974" in2="SourceGraphic" result="result7" mode="screen"/>
      <feComposite id="feComposite8976" in2="result7" operator="arithmetic" k2="1" k3="1" in="result8" result="result9" k1="0" k4="0"/>
      <feComposite id="feComposite8978" in2="SourceGraphic" operator="in" result="fbSourceGraphic" in="result9"/>
      <feColorMatrix result="fbSourceGraphicAlpha" in="fbSourceGraphic" values="0 0 0 -1 0 0 0 0 -1 0 0 0 0 -1 0 0 0 0 1 0" id="feColorMatrix9014"/>
      <feGaussianBlur id="feGaussianBlur9016" in="fbSourceGraphicAlpha" stdDeviation="2" result="blur"/>
      <feColorMatrix id="feColorMatrix9018" result="bluralpha" type="matrix" values="1 0 0 0 0 0 1 0 0 0 0 0 1 0 0 0 0 0 0.5 0 "/>
      <feOffset id="feOffset9020" in="bluralpha" dx="4" dy="4" result="offsetBlur"/>
      <feMerge id="feMerge9022">
        <feMergeNode id="feMergeNode9024" in="offsetBlur"/>
        <feMergeNode id="feMergeNode9026" in="fbSourceGraphic"/>
      </feMerge>
    </filter>
    <filter id="filter9180" inkscape:label="HSL Bumps" inkscape:menu="Bumps" inkscape:menu-tooltip="Highly flexible bump combining diffuse and specular lightings" color-interpolation-filters="sRGB">
      <feColorMatrix id="feColorMatrix9182" result="fbSourceGraphicAlpha" in="SourceGraphic" values="1 0 0 -1 0 1 0 1 -1 0 1 0 0 -1 0 -0.8 -1 0 3.7 -2.4 "/>
      <feGaussianBlur id="feGaussianBlur9184" stdDeviation="0.5" in="fbSourceGraphicAlpha" result="result0"/>
      <feSpecularLighting id="feSpecularLighting9186" result="result8" specularConstant="0.75" specularExponent="6" in="result0" surfaceScale="7">
        <feDistantLight id="feDistantLight9188" azimuth="235" elevation="15"/>
      </feSpecularLighting>
      <feDiffuseLighting id="feDiffuseLighting9190" surfaceScale="20" diffuseConstant="0.2" result="result6" lighting-color="#ffffff" in="result0">
        <feDistantLight id="feDistantLight9192" azimuth="235" elevation="25"/>
      </feDiffuseLighting>
      <feBlend id="feBlend9194" in2="SourceGraphic" result="result7" mode="screen"/>
      <feComposite id="feComposite9196" in2="result7" operator="arithmetic" k2="1" k3="1" in="result8" result="result9" k1="0" k4="0"/>
      <feComposite id="feComposite9198" in2="SourceGraphic" operator="in" result="result2" in="result9"/>
    </filter>
    <filter id="filter8960-1" inkscape:label="Drop shadow" inkscape:menu="Bumps" inkscape:menu-tooltip="Highly flexible bump combining diffuse and specular lightings" color-interpolation-filters="sRGB" width="1.5" height="1.5" x="-0.25" y="-0.25">
      <feColorMatrix id="feColorMatrix8962-7" result="fbSourceGraphicAlpha" in="SourceGraphic" values="1 0 0 -1 0 1 0 1 -1 0 1 0 0 -1 0 -0.8 -1 0 3.7 -2.4 "/>
      <feGaussianBlur id="feGaussianBlur8964-4" stdDeviation="0.5" in="fbSourceGraphicAlpha" result="result0"/>
      <feSpecularLighting id="feSpecularLighting8966-0" result="result8" specularConstant="0.75" specularExponent="6" in="result0" surfaceScale="7">
        <feDistantLight id="feDistantLight8968-9" azimuth="235" elevation="15"/>
      </feSpecularLighting>
      <feDiffuseLighting id="feDiffuseLighting8970-4" surfaceScale="20" diffuseConstant="0.2" result="result6" lighting-color="#ffffff" in="result0">
        <feDistantLight id="feDistantLight8972-8" azimuth="235" elevation="25"/>
      </feDiffuseLighting>
      <feBlend id="feBlend8974-8" in2="SourceGraphic" result="result7" mode="screen"/>
      <feComposite k4="0" k1="0" id="feComposite8976-2" in2="result7" operator="arithmetic" k2="1" k3="1" in="result8" result="result9"/>
      <feComposite id="feComposite8978-4" in2="SourceGraphic" operator="in" result="fbSourceGraphic" in="result9"/>
      <feColorMatrix result="fbSourceGraphicAlpha" in="fbSourceGraphic" values="0 0 0 -1 0 0 0 0 -1 0 0 0 0 -1 0 0 0 0 1 0" id="feColorMatrix9014-5"/>
      <feGaussianBlur id="feGaussianBlur9016-5" in="fbSourceGraphicAlpha" stdDeviation="2" result="blur"/>
      <feColorMatrix id="feColorMatrix9018-1" result="bluralpha" type="matrix" values="1 0 0 0 0 0 1 0 0 0 0 0 1 0 0 0 0 0 0.5 0 "/>
      <feOffset id="feOffset9020-7" in="bluralpha" dx="4" dy="4" result="offsetBlur"/>
      <feMerge id="feMerge9022-1">
        <feMergeNode id="feMergeNode9024-1" in="offsetBlur"/>
        <feMergeNode id="feMergeNode9026-5" in="fbSourceGraphic"/>
      </feMerge>
    </filter>
    <linearGradient inkscape:collect="always" xlink:href="#linearGradient8778-0" id="linearGradient8812-5" x1="-224.47701" y1="129.08275" x2="1012.396" y2="129.08275" gradientUnits="userSpaceOnUse"/>
    <linearGradient id="linearGradient8778-0">
      <stop style="stop-color:#e6e6e6;stop-opacity:1;" offset="0" id="stop8780-1"/>
      <stop style="stop-color:#cccccc;stop-opacity:0.74590164;" offset="1" id="stop8782-6"/>
    </linearGradient>
    <linearGradient y2="129.08275" x2="1012.396" y1="129.08275" x1="-224.47701" gradientUnits="userSpaceOnUse" id="linearGradient4180" xlink:href="#linearGradient8778-0" inkscape:collect="always" gradientTransform="matrix(0.69265584,0,0,1.1619673,107.7133,331.62999)"/>
    <linearGradient inkscape:collect="always" xlink:href="#linearGradient8778" id="linearGradient4388" gradientUnits="userSpaceOnUse" x1="-224.47701" y1="129.08275" x2="1012.396" y2="129.08275"/>
    <linearGradient inkscape:collect="always" xlink:href="#linearGradient8778-0" id="linearGradient4390" gradientUnits="userSpaceOnUse" gradientTransform="matrix(0.69265584,0,0,1.1619673,107.7133,331.62999)" x1="-224.47701" y1="129.08275" x2="1012.396" y2="129.08275"/>
    <linearGradient inkscape:collect="always" xlink:href="#linearGradient8778-0" id="linearGradient4441" gradientUnits="userSpaceOnUse" gradientTransform="matrix(0.69265584,0,0,1.1619673,107.7133,331.62999)" x1="-224.47701" y1="129.08275" x2="1012.396" y2="129.08275"/>
    <linearGradient inkscape:collect="always" xlink:href="#linearGradient8778" id="linearGradient4574" gradientUnits="userSpaceOnUse" x1="-224.47701" y1="129.08275" x2="1012.396" y2="129.08275"/>
    <linearGradient inkscape:collect="always" xlink:href="#linearGradient8778-0" id="linearGradient4576" gradientUnits="userSpaceOnUse" gradientTransform="matrix(0.69265584,0,0,1.1619673,107.7133,331.62999)" x1="-224.47701" y1="129.08275" x2="1012.396" y2="129.08275"/>
    <linearGradient inkscape:collect="always" xlink:href="#linearGradient8778-0" id="linearGradient4627" gradientUnits="userSpaceOnUse" gradientTransform="matrix(0.41638691,0,0,0.69851137,208.45546,295.67649)" x1="-224.47701" y1="129.08275" x2="1012.396" y2="129.08275"/>
    <linearGradient inkscape:collect="always" xlink:href="#linearGradient8778" id="linearGradient4687" gradientUnits="userSpaceOnUse" x1="-224.47701" y1="129.08275" x2="1012.396" y2="129.08275"/>
    <linearGradient inkscape:collect="always" xlink:href="#linearGradient8778-0" id="linearGradient4689" gradientUnits="userSpaceOnUse" gradientTransform="matrix(0.41638691,0,0,0.69851137,208.45546,295.67649)" x1="-224.47701" y1="129.08275" x2="1012.396" y2="129.08275"/>
  </defs>
  <sodipodi:namedview id="base" pagecolor="#ffffff" bordercolor="#666666" borderopacity="1.0" inkscape:pageopacity="0.0" inkscape:pageshadow="2" inkscape:zoom="0.35" inkscape:cx="215.81825" inkscape:cy="239.1548" inkscape:document-units="px" inkscape:current-layer="layer3" showgrid="false" inkscape:window-width="1600" inkscape:window-height="823" inkscape:window-x="0" inkscape:window-y="24" inkscape:window-maximized="1" fit-margin-top="0" fit-margin-left="0" fit-margin-right="0" fit-margin-bottom="0"/>
  <g inkscape:groupmode="layer" id="layer4" inkscape:label="piece" style="display:inline" transform="translate(-13.376974,-26.164386)"/>
  <g inkscape:groupmode="layer" id="layer5" inkscape:label="europe" style="display:inline" transform="translate(-13.376974,-26.164386)"/>
  <g inkscape:groupmode="layer" id="layer6" inkscape:label="Textes" style="display:inline" transform="translate(-13.376974,-26.164386)"/>
  <g inkscape:groupmode="layer" id="layer3" inkscape:label="Calque" style="display:inline" transform="translate(-13.376974,-26.164386)">
    <g id="g4633">
      <path transform="matrix(0.59444153,0,0,0.61007205,146.36469,97.466557)" d="m 977.82764,472.53464 c 0,324.69304 -268.64284,587.90876 -600.03058,587.90876 -331.38774,0 -600.03058,-263.21572 -600.03058,-587.90876 0,-324.69304 268.64284,-587.90875 600.03058,-587.90875 331.38774,0 600.03058,263.21571 600.03058,587.90875 z" sodipodi:ry="587.90875" sodipodi:rx="600.03058" sodipodi:cy="472.53464" sodipodi:cx="377.79706" id="path3165" style="fill:#b9a464;fill-opacity:0.99317322;stroke:#000000;stroke-width:3;stroke-miterlimit:4;stroke-opacity:1;stroke-dasharray:none;display:inline" sodipodi:type="arc"/>
      <path transform="matrix(0.6054719,0,0,21.787725,140.76272,-9628.2143)" d="m 945.71429,459.50504 c 0,8.67876 -251.36014,15.71428 -561.42858,15.71428 -310.068452,0 -561.42859,-7.03552 -561.42859,-15.71428 0,-8.67877 251.360138,-15.71429 561.42859,-15.71429 310.06844,0 561.42858,7.03552 561.42858,15.71429 z" sodipodi:ry="15.714286" sodipodi:rx="561.42859" sodipodi:cy="459.50504" sodipodi:cx="384.28571" id="path3167" style="fill:#d0c27b;fill-opacity:1;stroke:#000000;stroke-width:0.34757292;stroke-miterlimit:4;stroke-opacity:1;stroke-dasharray:none;display:inline" sodipodi:type="arc"/>
      <path transform="matrix(0.41638691,0,0,0.69851137,208.45546,295.67649)" d="m 1012.1729,129.08275 c 0,205.3042 -276.78358,371.73614 -618.2134,371.73614 -341.429818,0 -618.21338,-166.43194 -618.21338,-371.73614 0,-205.304205 276.783562,-371.73615 618.21338,-371.73615 341.42982,0 618.2134,166.431945 618.2134,371.73615 z" sodipodi:ry="371.73615" sodipodi:rx="618.21338" sodipodi:cy="129.08275" sodipodi:cx="393.9595" id="path7998" style="fill:url(#linearGradient4687);fill-opacity:1;stroke:#000000;stroke-width:1.11466479;stroke-miterlimit:4;stroke-opacity:1;stroke-dasharray:none;display:inline" sodipodi:type="arc"/>
      <path id="path7998-6" d="m 629.57992,399.29594 c -2.17319,4.47319 -3.57429,9.49084 -4.02016,14.9347 -0.24162,4.99838 0.1331,9.56752 0.99564,13.69485 1.51597,-9.38333 2.53402,-18.93697 3.02452,-28.62955 z" style="fill:url(#linearGradient4689);fill-opacity:1;stroke:none;display:inline" inkscape:connector-curvature="0"/>
      <path inkscape:connector-curvature="0" id="path9175" d="m 665.02871,377.6547 c -21.08952,0.007 -37.70359,15.02208 -39.46895,36.57594 -1.22514,25.34433 13.11183,39.82051 29.13677,40.08889 17.6703,-0.17315 31.45531,-9.41524 37.8158,-35.8433 -1.14444,-0.51609 5.07513,-34.63688 -27.48362,-40.82153 z m -4.73402,4.32073 c 1.22777,-0.037 2.49598,0.0298 3.81352,0.22543 20.51446,9.57879 17.34588,17.64898 17.17022,34.9228 -3.15387,15.15124 -9.3242,34.60003 -27.03276,31.7292 0,0 -23.3781,-1.00347 -18.22222,-36.44444 4.66985,-19.00845 12.40284,-30.07535 24.27124,-30.43299 z" style="fill:#000000;fill-opacity:0.31372549;stroke:#000000;stroke-width:0.60114545px;stroke-linecap:butt;stroke-linejoin:miter;stroke-opacity:1;display:inline"/>
      <path sodipodi:nodetypes="sssssssssssssssssssssssssssssssssssssssssssssssssssssssss" inkscape:connector-curvature="0" id="path7759" d="m 403.48482,375.55372 c 5.13689,0.13767 10.00392,-2.3586 15.02863,-3.43512 2.14089,-0.45867 4.30995,-0.78514 6.44085,-1.28817 1.58827,-0.37494 3.09145,-1.27081 4.72329,-1.28816 2.36042,-0.0251 4.67987,0.83746 6.87023,1.71755 1.07075,0.43024 2.00766,2.29676 3.00573,1.71756 1.11415,-0.64657 0.0536,-2.57745 0,-3.86451 -0.0716,-1.72202 -1.47779,-3.78469 -0.4294,-5.15267 0.97341,-1.27015 3.22226,-0.3041 4.72329,-0.85878 1.86515,-0.68923 4.4232,-1.15595 5.15267,-3.00573 0.54821,-1.39013 1.28817,-4.2939 -1.28816,-4.2939 -2.57634,0 -6.24905,0.34696 -9.01718,-0.85877 -1.58012,-0.68827 -3.36426,-1.7858 -3.86451,-3.43512 -0.98747,-3.2557 3.37631,-6.56919 2.57634,-9.87596 -0.85804,-3.5468 -5.88454,-4.79484 -7.29963,-8.1584 -0.83441,-1.98334 0.17137,-4.3747 -0.42938,-6.44085 -0.50072,-1.72209 -1.66146,-3.18078 -2.57635,-4.72328 -1.21522,-2.04888 -3.75874,-3.63165 -3.8645,-6.01146 -0.15065,-3.38977 3.00573,-8.58779 4.72328,-9.01718 1.71757,-0.42939 4.21106,-1.7468 3.86451,-3.43512 -0.54603,-2.66024 -5.01395,-2.51734 -7.72901,-2.57633 -1.04176,-0.0226 -2.09486,1.36481 -3.00573,0.85877 -0.91087,-0.50603 -1.09818,-1.9916 -0.85878,-3.00572 0.53532,-2.26766 5.09651,-2.85278 4.72329,-5.15268 -0.23605,-1.45459 -2.39385,-2.05373 -3.86451,-2.14695 -1.53847,-0.0975 -3.04332,0.8162 -4.29389,1.71756 -1.97734,1.42519 -3.22646,3.6584 -4.72329,5.58207 -0.75612,0.97173 -2.1928,1.77533 -2.14695,3.00572 0.0416,1.11711 2.1976,1.45961 2.14695,2.57634 -0.0825,1.81988 -2.75872,2.41675 -3.86451,3.86451 -0.70043,0.91705 -2.10938,1.92034 -1.71755,3.00573 0.41523,1.15024 2.43309,0.58713 3.43511,1.28816 1.08124,0.75646 2.32267,1.71075 2.57634,3.00573 0.26102,1.33252 -1.07066,2.52419 -1.28817,3.86451 -0.11463,0.7064 -0.37624,1.53818 0,2.14694 0.50478,0.81675 2.25211,0.38443 2.57634,1.28818 0.47603,1.32686 -2.77335,2.93044 -1.71756,3.8645 1.87521,1.65902 4.02794,-3.19617 6.44084,-3.8645 0.68969,-0.19104 1.58872,-0.4478 2.14695,0 1.02934,0.8257 0.71479,2.55279 0.85878,3.8645 0.14056,1.28048 0,2.14695 0,3.86451 0,1.71756 -0.21865,4.0196 0,6.01145 0.14399,1.31171 1.12749,2.57256 0.85878,3.86451 -0.39642,1.90599 -1.83292,3.61743 -3.43512,4.72329 -1.34308,0.92701 -3.1704,0.78643 -4.72328,1.28816 -1.16367,0.37598 -2.94921,0.16595 -3.43512,1.28817 -0.73932,1.7075 2.50804,3.32737 2.14695,5.15268 -0.35354,1.78711 -2.18143,3.16735 -3.86451,3.8645 -1.71905,0.71206 -4.4941,-1.50947 -5.58206,0 -0.5293,0.73437 0.11142,2.06555 0.85878,2.57635 2.36629,1.61728 5.7375,-0.73071 8.58779,-0.4294 2.20966,0.23359 5.08714,-0.0444 6.44084,1.71756 0.6976,0.90801 0.18342,2.30486 0,3.43512 -0.145,0.89354 -0.16529,1.99451 -0.85878,2.57633 -2.99286,2.51096 -8.07406,0.0218 -11.59352,1.71757 -2.64568,1.27476 -7.12841,3.15629 -6.44084,6.01145 0.24396,1.01304 1.9641,0.83086 3.00573,0.85878 z" style="fill:#000000;fill-opacity:0.12941176;stroke:#000000;stroke-width:0.60114545px;stroke-linecap:butt;stroke-linejoin:miter;stroke-opacity:1;display:inline"/>
      <path id="path4129" d="m 571.60695,161.95619 c -1.02496,0.0733 -2.12274,0.39038 -3.02451,0.61994 -1.997,0.50834 -3.73213,1.67872 -5.4291,2.91179 l 0.39451,0.0752 -5.33517,4.69645 0.93929,6.98831 -6.2181,-3.53173 -2.7803,1.29622 c -2.07186,1.60097 -4.13503,3.20099 -6.25567,4.73402 -2.62291,1.89613 -5.58556,3.36546 -7.94639,5.57938 -5.75747,5.39923 -10.42552,11.9112 -14.82199,18.46644 -2.1404,3.19139 -4.61901,6.36723 -5.57938,10.08797 -0.48359,1.87354 0.89256,4.08804 0,5.80481 -0.80457,1.54754 -3.87717,1.30945 -4.28316,3.00573 -0.28234,1.17966 1.7095,2.13889 1.7095,3.21237 0,1.07347 0.86415,3.64981 0.86415,4.50859 0,0.85878 -2.68184,0.3327 -3.4378,1.29622 -0.3543,0.45159 -0.25076,1.13723 -0.20664,1.70951 0.08,1.0377 1.47383,2.17612 0.84536,3.00573 -1.07765,1.42255 -3.78803,-0.85608 -5.35395,0 -2.9111,1.59146 -3.13603,5.92809 -5.37274,8.37846 -2.74956,3.01222 -6.48953,4.9438 -9.6559,7.51432 -4.73273,3.84212 -11.78883,6.11925 -13.95785,11.81627 -0.54007,1.41853 1.44029,3.21963 0.63872,4.50859 -0.47685,0.76679 -1.98175,0.16344 -2.57365,0.84536 -1.3342,1.53708 -0.89163,3.98399 -1.07079,6.01145 -0.15158,1.71535 -1.21767,3.94843 0,5.1661 1.26193,1.26193 4.23152,-1.3875 5.35395,0 0.4148,0.51275 -0.23819,1.29908 -0.41329,1.93493 -0.3002,1.09013 -0.4926,2.2521 -1.08958,3.21237 -0.2665,0.42869 -0.69032,0.73906 -1.07079,1.07079 -0.53901,0.46997 -1.57297,0.59426 -1.7095,1.29622 -0.1587,0.81593 0.60937,1.64702 1.27743,2.14159 0.71531,0.52954 2.10617,-0.10668 2.59244,0.63871 0.91349,1.40027 -0.93089,3.27011 -0.86415,4.94067 0.0679,1.69969 -0.20071,4.09885 1.27744,4.94066 2.01135,1.14548 4.73784,-0.65882 6.66896,-1.93494 0.85021,-0.56183 1.28652,-1.58082 1.93493,-2.36701 0.71011,-0.86099 1.33987,-1.79724 2.14158,-2.57365 1.75644,-1.70098 4.20807,-2.64086 5.78603,-4.50859 1.36333,-1.61369 0.89552,-5.67774 3.00573,-5.57938 1.47431,0.0687 1.22016,2.69083 1.72829,4.07652 0.41321,1.12685 0.43295,2.42107 1.07079,3.4378 0.7793,1.24221 2.3925,1.7899 3.21237,3.00572 2.22878,3.30517 2.89501,7.42886 4.30195,11.15877 0.72789,1.9297 1.37703,3.88933 2.14158,5.80481 1.01073,2.53226 2.80177,6.01145 3.23115,7.51431 0.4294,1.50287 2.26705,2.51386 2.7803,4.07652 0.64916,1.97644 0.22543,5.37811 0.22543,6.23689 0,0.85877 0.23677,1.52584 0.84536,1.7095 0.95626,0.28859 1.98251,-0.71185 2.59244,-1.50286 1.31263,-1.70229 0.72298,-4.30824 1.70951,-6.2181 0.46769,-0.90542 1.20541,-1.65544 1.93494,-2.36701 1.16925,-1.14046 2.93814,-1.6642 3.86987,-3.00573 0.81231,-1.16957 1.06205,-2.6689 1.27743,-4.07651 0.50862,-3.32397 0.12489,-6.72764 0,-10.08798 -0.072,-1.93895 -1.21386,-4.02899 -0.43207,-5.80481 0.51385,-1.16717 2.03592,-1.53887 3.00573,-2.36701 1.03789,-0.88628 1.97595,-1.88459 3.00573,-2.78029 0.76891,-0.6688 1.66801,-1.19337 2.36701,-1.93494 1.09197,-1.1585 2.30873,-2.35525 2.79908,-3.86988 0.32981,-1.01873 0.69875,-2.40099 0,-3.21237 -0.33056,-0.38383 -1.20411,0.18366 -1.50286,-0.22543 -0.2544,-0.34834 0.14658,-0.85029 0.20664,-1.27743 0.0808,-0.57455 0.24993,-1.14971 0.20664,-1.72829 -0.0388,-0.51811 -0.0232,-1.15967 -0.41328,-1.50287 -1.13957,-1.00266 -3.24003,0.19476 -4.50859,-0.63871 -1.26377,-0.83032 -1.83261,-2.45533 -2.36702,-3.86988 -0.43587,-1.15374 -0.65138,-2.41117 -0.63871,-3.64444 0.015,-1.46133 0.67055,-2.85104 0.84536,-4.30195 0.19645,-1.63055 -0.17231,-3.32842 0.22543,-4.92188 0.40293,-1.61426 1.56734,-2.94704 2.14158,-4.50859 0.3848,-1.04639 0.4471,-2.19719 0.86415,-3.23116 0.55148,-1.36728 1.34045,-2.63222 2.14158,-3.86987 0.96976,-1.49817 2.23036,-2.79298 3.21237,-4.28316 0.63594,-0.96503 1.30248,-1.9313 1.72829,-3.00573 0.45999,-1.16067 0.34465,-2.50916 0.86415,-3.64444 0.40497,-0.88501 1.10537,-1.60395 1.7095,-2.36701 0.88454,-1.11722 2.35998,-1.87552 2.79909,-3.23116 0.26537,-0.81926 0.19559,-1.82242 -0.22543,-2.57365 -0.17512,-0.31247 -0.67228,-0.33625 -0.86415,-0.63872 -0.5848,-0.92192 -0.78423,-2.13036 -0.63872,-3.21237 0.12878,-0.95752 0.78503,-1.77262 1.29622,-2.59244 0.99997,-1.6037 2.59403,-2.8175 3.43781,-4.50859 0.46467,-0.9313 0.42394,-2.05408 0.84536,-3.00573 0.27225,-0.61481 0.7795,-1.10348 1.07079,-1.70951 0.75583,-1.57253 0.3637,-3.85345 1.72829,-4.94066 1.01517,-0.80881 2.59921,-0.16723 3.86987,-0.43207 0.7058,-0.14711 1.37909,-0.8563 2.06644,-0.63872 2.15777,0.68303 2.9227,3.47216 4.15166,5.37274 1.32188,2.04426 2.94657,4.05918 3.4378,6.44352 0.34744,1.68639 -0.0465,3.46924 -0.43207,5.14731 -0.89272,3.88519 -2.69527,7.51045 -4.30195,11.15876 -1.1614,2.63723 -2.2123,5.36947 -3.85109,7.73975 -1.55475,2.24875 -4.44031,3.52617 -5.57938,6.01146 -1.6198,3.53418 -1.9351,7.75599 -1.29622,11.59083 0.93676,5.62276 2.79862,11.97341 7.30768,15.46071 2.41996,1.8716 6.0791,2.56204 9.01718,1.70951 2.81668,-0.8173 4.002,-4.35858 6.42474,-6.01145 3.01479,-2.0568 6.32182,-3.90948 9.88133,-4.71524 1.8139,-0.41061 3.736,-0.24655 5.57938,0 3.23568,0.43277 6.96814,0.4521 9.44926,2.57365 1.06939,0.91442 1.43371,2.47523 1.72829,3.85109 0.30022,1.4022 0.7174,3.06032 0,4.30195 -2.15153,3.72372 -7.1207,5.01623 -11.17755,6.44353 -1.7753,0.62459 -3.70552,0.68964 -5.57938,0.86414 -4.27937,0.39853 -10.29893,-3.01796 -12.88706,0.41329 -0.71153,0.94333 0.32869,2.38451 0.86415,3.4378 1.01552,1.9976 3.53946,3.05889 4.30195,5.1661 0.68181,1.88425 -0.42939,3.8645 0,6.01145 0.42939,2.14695 2.42493,1.56211 3.4378,2.57365 2.0222,2.01955 6.42486,4.30032 5.14731,6.85682 -0.57664,1.1539 -2.61443,0.29637 -3.86988,0 -1.55354,-0.36674 -2.75388,-1.6841 -4.28316,-2.14158 -2.34997,-0.70299 -4.8553,-0.91315 -7.30767,-0.86415 -2.75127,0.055 -6.31172,-0.74877 -8.15304,1.29622 -1.82103,2.02247 -0.66303,5.44136 -0.43207,8.15304 0.27407,3.21798 0.62755,6.59649 2.14158,9.44925 1.47247,2.77448 5.61591,3.8456 6.44353,6.8756 0.34826,1.27503 -0.29213,2.67834 -0.86415,3.86988 -1.1876,2.47383 -3.10916,4.5873 -5.14731,6.42474 -1.77002,1.59572 -3.66454,3.45602 -6.01145,3.86987 -3.18056,0.56087 -6.26736,-1.58835 -9.44926,-2.14158 -4.68621,-0.81477 -9.41713,-2.02319 -14.16449,-1.72829 -5.88896,0.36582 -15.45266,4.30195 -17.17021,4.30195 -1.71756,0 -7.29963,2.14158 -9.01719,2.14158 -1.71755,0 -3.83765,2.05084 -5.59816,1.29622 -3.36201,-1.44107 -4.28957,-6.02637 -5.57939,-9.44926 -1.07874,-2.86276 -1.97047,-5.96906 -1.7095,-9.01718 0.20875,-2.43824 1.87849,-4.52925 2.57365,-6.8756 0.7488,-2.52739 2.07244,-5.11009 1.70951,-7.72096 -0.29086,-2.09238 -1.12083,-4.62554 -3.00573,-5.57938 -1.80551,-0.91368 -4.39423,-0.3709 -6.01145,0.84536 -2.51122,1.88862 -3.53277,5.47791 -3.85109,8.60389 -0.26704,2.62243 1.20659,5.1334 1.70951,7.72096 0.66504,3.42171 0.64888,6.99901 1.72829,10.31341 1.28778,3.9542 6.64902,7.14005 5.57938,11.15876 -0.39846,1.49705 -2.81197,1.44193 -3.86987,2.57365 -1.57633,1.68632 -1.48393,4.7823 -3.4378,6.01146 -1.70049,1.06975 -4.00376,0.36001 -6.01146,0.43207 -1.28912,0.0463 -2.61458,0.29706 -3.86987,0 -2.48807,-0.58879 -5.19364,-5.3797 -6.85682,-3.4378 -1.60049,1.86871 4.67728,3.5828 4.28316,6.01145 -0.31157,1.92002 -3.14294,2.29262 -4.71523,3.4378 -3.14867,2.29336 -6.02396,5.02064 -9.44926,6.87561 -1.99478,1.08027 -4.87741,2.16674 -8.11546,3.23115 11.7509,0.004 23.26652,0.14339 23.25682,0.67629 l -0.11272,6.55624 0.0564,8.9984 c -1.34641,0.79004 -2.69254,1.51154 -4.03895,0.33814 l -0.82657,-7.9276 -1.52165,-3.64445 -5.46667,-0.30057 -8.81054,0 -7.89003,1.22108 -4.54616,27.31455 2.12279,0.61993 4.54616,0 7.90882,-0.92051 2.72394,-1.20229 2.1228,-2.74272 2.74272,-4.54617 1.2023,0 1.52164,2.72394 -3.94501,8.50997 0.60114,11.53448 -2.12279,2.12279 -2.1228,-2.12279 0,-3.0433 0,-5.1661 -1.22107,-1.20229 -5.76724,0 -8.79175,0 -3.0433,1.20229 -3.34388,19.4433 -1.20229,6.98832 2.42337,3.02451 2.42337,1.22108 11.85384,0 8.49118,-1.22108 3.94501,-1.82222 c 0,0 3.04093,-1.40357 3.94502,-2.72394 1.47008,-2.14698 -0.22116,-5.97847 1.82222,-7.58946 0.47687,-0.37596 1.30567,-0.31925 1.82222,0 0.96255,0.59489 1.39038,1.90061 1.52165,3.02451 0.20507,1.75559 -0.76912,3.45733 -1.22107,5.1661 -0.45858,1.73379 -1.50287,5.16609 -1.50287,5.16609 l -5.46666,3.64444 -8.2094,0.60115 -11.83505,-0.60115 -10.33218,0 c 0,0 -7.07445,-0.12802 -10.61398,-0.30057 -2.93852,-0.14325 -8.20355,2.25878 -8.81054,-0.61993 -0.44833,-2.12628 3.89922,-1.91429 5.76724,-3.02451 0.94107,-0.55931 1.97691,-1.03994 2.74273,-1.82223 0.92312,-0.94296 1.66905,-2.10474 2.12279,-3.34387 6.57305,-17.95051 7.8415,-56.16835 7.89004,-57.70996 -0.0389,0.0304 -0.11064,0.0673 -0.22543,0.11271 -2.449,0.96944 -6.5118,2.205 -8.82933,3.45659 -2.89756,1.56484 -5.13273,4.26697 -8.15303,5.57938 -1.21223,0.52675 -2.56529,1.07632 -3.86988,0.86415 -2.46765,-0.40132 -4.01595,-3.20045 -6.42474,-3.86988 -1.52038,-0.42252 -3.17144,-0.22016 -4.73402,0 -1.0323,0.14545 -2.20407,0.19771 -3.00573,0.86415 -1.47512,1.22631 -2.69123,3.23262 -2.57365,5.14731 0.0631,1.02796 1.02456,1.80454 1.70951,2.57365 1.6253,1.82502 3.70061,3.19404 5.59816,4.73402 2.53265,2.0554 5.58698,3.54466 7.72097,6.01146 0.7541,0.8717 1.24011,1.95302 1.7095,3.00572 1.29029,2.89368 2.61416,5.87316 3.00573,9.01719 0.23048,1.85059 -0.41329,3.86182 -0.41329,5.57938 0,1.71756 -0.11004,4.69226 -0.86414,6.8756 -1.0893,3.15382 -3.05195,5.98845 -5.14731,8.58511 -1.9725,2.4444 -3.86237,5.55676 -6.8756,6.44353 -1.53883,0.45286 -3.2001,-0.39496 -4.73402,-0.86415 -2.38642,-0.72995 -4.55536,-2.0408 -6.85682,-3.00573 -2.84286,-1.19192 -5.6678,-2.4419 -8.58511,-3.4378 -1.97155,-0.67304 -4.00102,-1.16348 -6.01145,-1.70951 -3.85772,-1.04774 -7.63161,-2.61175 -11.60962,-3.00572 -2.56513,-0.25405 -5.16339,0.11078 -7.72096,0.43207 -1.45002,0.18215 -3.65767,-0.46636 -4.30195,0.84536 -0.98768,2.01087 2.9395,3.7721 3.00573,6.01145 0.0644,2.17879 -1.22808,4.29662 -2.57366,6.01146 -1.32512,1.68876 -4.07034,2.013 -5.14731,3.86987 -0.57945,0.99907 -0.18737,2.30908 -0.43207,3.4378 -0.50859,2.34597 -0.80732,4.88011 -2.14158,6.87561 -0.62033,0.92776 -1.69781,1.44987 -2.57365,2.14158 -1.68852,1.33353 -3.97543,2.07775 -5.1661,3.86987 -1.95742,2.94617 -1.89218,6.82373 -2.57365,10.29462 -0.19502,0.99324 -0.27764,2.00537 -0.43208,3.00572 -0.39895,2.58421 -0.945,5.14615 -1.27743,7.73975 -0.20066,1.56552 -1.11275,3.29122 -0.43207,4.71524 2.00207,4.18842 10.73205,6.00339 11.59083,7.72096 0.85878,1.71755 3.96476,4.43531 6.44353,6.01145 1.30408,0.8292 2.80041,1.36279 4.30195,1.7283 2.93383,0.71415 6.00113,0.71995 9.01718,0.86414 3.8592,0.1845 7.72757,-0.0516 11.59084,0 5.15494,0.0689 10.50698,1.84118 15.46071,0.41329 2.47316,-0.71288 4.16137,-3.05765 6.42474,-4.28316 1.91679,-1.03786 4.15687,-1.42833 6.01145,-2.57366 2.07928,-1.28408 3.45122,-4.30462 5.59817,-4.73402 2.14695,-0.42938 0.396,-3.4261 0.41329,-5.1473 0.023,-2.29589 -0.93347,-4.6393 -0.41329,-6.87561 0.52227,-2.24529 2.14226,-4.09207 3.41901,-6.01145 1.30068,-1.95535 2.28786,-4.37167 4.30195,-5.57938 1.49209,-0.8947 3.00036,-0.005 5.14731,-0.86415 2.14695,-0.85878 4.48157,-3.0343 6.8756,-4.28316 1.93259,-1.00814 3.98554,-1.76936 6.01146,-2.57365 1.55587,-0.61769 3.80427,-0.32386 4.71523,-1.7283 1.09301,-1.6851 -0.55451,-4.00788 -0.41329,-6.01145 0.14404,-2.04349 -0.25259,-4.64924 1.27744,-6.01146 2.25475,-2.00746 5.99869,-0.79488 9.01718,-0.84536 2.29568,-0.0384 4.5975,0.69948 6.8756,0.41329 4.17539,-0.52455 8.54437,-1.4828 12.02291,-3.85109 1.68476,-1.14703 2.45677,-3.26526 3.86987,-4.73402 2.24837,-2.33691 4.13805,-5.67638 7.28889,-6.44353 2.29609,-0.55903 5.42248,-0.1353 6.8756,1.7283 1.49399,1.916 -0.9257,5.04251 0,7.28889 0.46394,1.12582 1.71421,1.72985 2.57366,2.59244 0.85632,0.85944 1.71472,1.71681 2.57365,2.57365 1.28839,1.28527 2.68645,2.46856 3.86987,3.85109 1.26819,1.48155 2.25414,3.18412 3.43781,4.73402 1.11115,1.45495 2.01486,3.13129 3.4378,4.28316 1.49318,1.20873 3.66728,1.36764 5.1473,2.59244 1.80631,1.49482 2.40358,4.17782 4.28317,5.57938 1.60167,1.19432 3.74742,1.3889 5.59816,2.14158 1.01072,0.41105 2.10291,0.6835 3.00573,1.29622 0.83533,0.56693 1.39356,1.4636 2.14158,2.14158 1.50657,1.36551 3.03289,2.72792 4.71524,3.86988 2.43966,1.65601 5.34426,2.56386 7.73974,4.28316 1.72849,1.24058 3.85624,2.35546 4.71524,4.30194 0.51828,1.17443 0.15521,2.57681 0,3.85109 -0.21448,1.76088 -0.90447,3.43185 -1.27744,5.1661 -0.33596,1.5622 -1.88715,3.4877 -0.86414,4.71523 0.54922,0.65903 1.71577,0 2.57365,0 2.14695,0 2.17051,-1.23834 3.00573,-2.14158 1.70099,-1.83952 3.40344,-3.98189 3.86987,-6.44353 0.32389,-1.70937 -0.0671,-3.60082 -0.86414,-5.14731 -0.55579,-1.07843 -2.05886,-1.47505 -2.57366,-2.57365 -0.67236,-1.43484 -1.29769,-3.40679 -0.43207,-4.73402 0.49436,-0.75799 1.67678,-0.98479 2.57365,-0.86415 1.02415,0.13777 1.60236,1.37555 2.57366,1.7283 2.57459,0.93502 6.01533,2.55305 8.17182,0.86414 0.79621,-0.62357 0.86814,-2.10245 0.41328,-3.00572 -1.61205,-3.20128 -6.1812,-3.65308 -9.43046,-5.1661 -2.50896,-1.16829 -5.56941,-1.28835 -7.73975,-3.00572 -2.17524,-1.72125 -2.42989,-5.28471 -4.71524,-6.85682 -3.03568,-2.08827 -7.53168,-0.79028 -10.74547,-2.59244 -2.81932,-1.58096 -5.32982,-4.00791 -6.85682,-6.85682 -1.37903,-2.57284 -0.26392,-6.05987 -1.72829,-8.5851 -0.091,-0.15694 -0.17679,-0.3057 -0.28179,-0.45086 -2.87745,0.43261 -5.74523,0.53679 -8.62268,0.11271 -4.54516,-0.48189 -8.181,-2.32371 -11.59083,-4.50859 -2.33263,-2.05217 -4.00485,-5.20682 -5.48546,-8.67904 0.2477,-8.24282 0.72018,-16.42592 1.82223,-24.38396 l 4.18923,-27.57755 c 0.62845,-2.67093 0.19169,-4.12755 -1.18351,-4.50859 l -5.46666,-0.31936 -0.11272,-1.50286 1.40894,-1.29622 10.72669,0.31936 9.12989,-0.0939 4.82795,0 0.63872,1.27743 -0.31936,1.29622 c 0,0 -0.85341,0.0939 -1.39015,0.0939 l -2.04765,0 -3.32509,0.6575 -1.93493,1.27744 -0.31936,0.75143 -0.63872,3.86987 -6.01145,40.37068 -0.43208,5.78602 0.20665,4.82795 1.72829,3.55052 5.78603,3.64444 2.40458,0.18786 c -0.21109,-0.22458 -0.40611,-0.45911 -0.58236,-0.71386 -1.39239,-2.01243 -2.74456,-4.43441 -2.57366,-6.8756 0.12544,-1.79174 1.80125,-3.11246 2.57366,-4.73402 1.13019,-2.37267 0.73463,-5.96638 3.00573,-7.28889 1.99611,-1.16239 4.6919,0.1111 6.8756,0.86415 1.57971,0.54477 2.78306,1.87705 4.30194,2.57365 2.05732,0.94354 4.68641,0.71493 6.44353,2.14158 0.55453,0.45024 1.03502,0.96581 1.46529,1.52165 l 1.20229,-3.13723 2.04766,-11.15876 2.46094,-15.34799 1.40893,-7.51432 c 0.0716,-3.65544 0.0224,-3.84756 0.0939,-5.89874 l 0.22543,-3.75716 -0.11272,-2.36701 -0.20664,-2.04765 -1.50286,-0.63872 -3.11845,0 -1.7095,-0.54479 -0.33815,-1.50286 0.11272,-1.16472 1.61558,-0.22543 6.53745,0.11271 7.62704,0.11272 3.75715,0.0939 0.11272,1.82222 -0.43207,1.08958 c -1.18082,-0.11858 -2.3697,-0.0734 -3.55052,0.0939 -2.23637,0.57254 -2.24754,2.9188 -3.21237,4.50859 l -3.11844,13.63848 -5.78603,32.42429 -2.08522,4.97823 c 0.80736,1.76353 1.52969,3.60299 2.5173,5.22245 0.97046,1.59136 1.64029,3.44647 3.00572,4.71524 1.54754,1.43798 3.77811,1.90207 5.57938,3.00573 3.8568,2.36309 7.53151,5.01874 11.15877,7.72096 2.94014,2.19033 7.41049,3.40252 8.58511,6.8756 0.56637,1.67463 -1.36169,3.3815 -1.27744,5.14731 0.12309,2.57961 1.6819,4.88397 2.57366,7.30767 0.68786,1.86956 1.33825,3.75645 2.14158,5.57938 0.90343,2.05011 1.75,4.15612 3.00572,6.01146 1.93424,2.85786 6.44622,6.02219 6.87561,7.73975 0.42939,1.71755 -1.12593,1.99663 -0.86415,3.00572 0.50811,1.9587 3.52553,2.41451 4.30195,4.28316 0.65833,1.58445 -0.65516,3.56155 0,5.14731 0.92821,2.24671 2.85622,4.35356 5.1473,5.1661 2.57572,0.91347 5.75613,0.44869 8.15304,-0.86415 1.60994,-0.8818 2.73489,-2.60625 3.4378,-4.30195 0.49465,-1.19328 0.35995,-2.56135 0.43207,-3.85109 0.0962,-1.71934 0.4821,-3.51292 0,-5.16609 -0.52182,-1.78939 -2.20475,-3.03219 -3.00572,-4.71523 -0.97263,-2.04373 -1.30643,-4.33988 -2.14159,-6.44353 -0.7567,-1.90604 -2.38087,-3.53957 -2.59243,-5.57938 -0.19698,-1.89914 -0.46113,-4.83288 1.29622,-5.57939 1.53799,-0.65333 2.63844,2.73185 4.30194,2.57366 1.71304,-0.16291 2.4272,-2.47158 3.85109,-3.4378 2.12031,-1.43879 4.92853,-1.77205 6.8756,-3.4378 0.93479,-0.79974 0.96472,-2.64737 2.14158,-3.00573 1.17157,-0.35674 2.32615,0.78234 3.4378,1.29622 1.33824,0.61862 2.43265,1.81298 3.86988,2.14158 2.51283,0.57453 5.42886,0.74721 7.72096,-0.43207 1.6279,-0.83755 1.98404,-3.17045 3.4378,-4.28316 1.98625,-1.52029 5.32309,-1.04456 6.8756,-3.00573 0.99562,-1.2577 1.39784,-3.22132 0.86415,-4.73402 -1.38412,-3.92313 -7.71709,-4.37067 -9.44926,-8.15304 -1.4314,-3.12562 -0.2133,-6.88222 0,-10.3134 0.19142,-3.07915 0.0483,-6.35183 -0.15028,-9.67468 -2.09226,-5.58426 -3.15081,-12.24842 -2.7803,-19.91295 1.62556,-19.84695 15.84031,-34.14801 34.54708,-36.29415 -0.63151,-10.71926 -2.11838,-21.39226 -3.71959,-32.011 -1.93337,-12.82148 -4.01893,-25.66297 -7.28889,-38.21031 -1.3698,-5.25612 -3.35041,-10.33486 -5.14731,-15.46071 -2.87657,-8.20572 -5.56264,-16.49825 -9.01718,-24.47789 -1.17631,-2.71715 -2.53124,-5.34144 -3.90745,-7.96518 l -5.50423,2.57366 1.50286,-6.89439 -4.94066,-5.10974 4.05773,-0.41328 c -2.29649,-5.12375 -4.35488,-10.36175 -7.10103,-15.25407 -1.81511,-3.23365 -3.75363,-6.39882 -5.78603,-9.50561 l 0.24422,1.84101 -6.2181,-3.53173 -6.46232,3.02451 1.48408,-6.89439 -4.92188,-5.10973 7.13861,-0.73265 0.28178,-0.526 c -0.11885,-0.15604 -0.2377,-0.31393 -0.35693,-0.46965 -3.69866,-4.83055 -7.36426,-9.81943 -12.02291,-13.73241 -1.94313,-1.63212 -3.993,-3.77499 -6.10538,-5.93632 l 0.46965,3.53173 -6.2181,-3.51294 -6.4811,3.02451 1.50286,-6.89438 -4.92188,-5.10974 3.13723,-0.31936 c -1.0829,-0.25987 -2.16714,-0.33032 -3.24994,-0.1315 0.93628,-1.48919 2.18436,-2.60864 3.8323,-2.47972 2.88267,0.2255 1.28233,-0.82961 1.50286,-1.50287 0.44963,-1.37268 -0.13646,-2.93596 -0.6575,-4.28316 -0.8376,-2.1657 -3.91947,-3.48378 -3.85109,-5.80481 0.0316,-1.07283 1.49793,-1.59335 1.93494,-2.57365 0.59504,-1.33479 1.75272,-3.15635 0.84536,-4.30195 -0.57775,-0.72945 -1.5299,-0.89989 -2.55487,-0.82658 z" style="fill:#000000;fill-opacity:0.12941176;stroke:#000000;stroke-width:0.60114545px;stroke-linecap:butt;stroke-linejoin:miter;stroke-opacity:1;display:inline" inkscape:connector-curvature="0"/>
      <path inkscape:connector-curvature="0" id="path4125" d="m 660.29469,381.97543 c -10.17689,0.30667 -17.30165,8.49591 -22.07331,22.80596 0.9331,0.0179 1.86847,0.0554 2.72394,-0.0376 2.70523,-0.29411 5.48528,0.12317 8.15304,-0.41329 3.72654,-0.74937 8.50818,-0.78332 10.72669,-3.86987 3.59835,-5.00631 1.10262,-12.19033 0.526,-18.48523 -0.0188,5.2e-4 -0.0376,-5.6e-4 -0.0563,0 z" style="fill:#000000;fill-opacity:0.12941176;stroke:#000000;stroke-width:0.60114545px;stroke-linecap:butt;stroke-linejoin:miter;stroke-opacity:1;display:inline"/>
      <path inkscape:connector-curvature="0" id="path3067" d="m 437.00673,383.72251 -4.86552,0.28179 c -0.0892,0.0302 -0.19571,0.0642 -0.28179,0.0939 -1.53965,0.53158 4.68467,-0.3915 5.14731,-0.16907 5.3e-4,-0.0171 0,-0.20665 0,-0.20665 z" style="fill:#000000;fill-opacity:0.12941176;stroke:#000000;stroke-width:0.60114545px;stroke-linecap:butt;stroke-linejoin:miter;stroke-opacity:1;display:inline"/>
      <path sodipodi:nodetypes="ssssssssssssssssssss" inkscape:connector-curvature="0" id="path7761" d="m 372.56877,349.36095 c -1.60705,-2.43714 -0.40317,-6.58161 1.71755,-8.58779 2.2057,-2.08655 6.11905,-0.38286 9.01719,-1.28817 1.22196,-0.38171 3.23005,-0.4539 3.43512,-1.71756 0.16211,-0.99901 -1.24172,-1.69433 -2.14695,-2.14694 -1.81047,-0.90524 -4.86,0.80596 -6.01146,-0.85879 -1.50132,-2.17056 -0.34111,-6.0776 1.71756,-7.72901 1.33977,-1.07472 3.59727,-0.72851 5.15267,0 1.01235,0.47415 1.06321,2.30218 2.14695,2.57634 1.49448,0.37806 3.42966,-0.44105 4.2939,-1.71756 1.12339,-1.6593 -1.41692,-4.59454 0,-6.01146 1.3157,-1.3157 3.76469,-0.39916 5.58206,0 2.0016,0.43963 4.47759,0.85014 5.58207,2.57635 1.1571,1.80845 0.94326,4.5122 0,6.44084 -0.717,1.46599 -3.14752,1.53973 -3.86451,3.00572 -1.06903,2.18579 0.081,4.86777 0,7.29963 -0.0716,2.15052 0.96194,4.79948 -0.42939,6.44085 -1.61631,1.90678 -4.84728,1.23352 -7.29962,1.71755 -3.55517,0.70171 -7.11206,1.80604 -10.73474,1.71756 -2.77825,-0.0679 -6.62854,0.60253 -8.1584,-1.71756 z" style="fill:#000000;fill-opacity:0.12941176;stroke:#000000;stroke-width:0.60114545px;stroke-linecap:butt;stroke-linejoin:miter;stroke-opacity:1;display:inline"/>
      <path sodipodi:nodetypes="ssssssss" inkscape:connector-curvature="0" id="path7745" d="m 437.83599,488.48319 c -0.95951,0.035 -1.87186,0.6358 -2.57634,1.28817 -0.61235,0.56706 -1.29576,1.31239 -1.28817,2.14695 0.0123,1.35022 1.14791,2.5267 2.14695,3.43511 1.65755,1.50719 3.88608,3.71418 6.01145,3.00573 1.51812,-0.50604 1.53456,-2.81547 2.14695,-4.29389 0.34642,-0.83633 1.2355,-1.75323 0.85878,-2.57635 -1.09509,-2.39271 -4.66996,-3.1018 -7.29962,-3.00572 z" style="fill:#000000;fill-opacity:0.12941176;stroke:#000000;stroke-width:0.60114545px;stroke-linecap:butt;stroke-linejoin:miter;stroke-opacity:1;display:inline"/>
      <path sodipodi:nodetypes="sssssssss" inkscape:connector-curvature="0" id="path7747" d="m 490.22152,473.45455 c 1.51999,-1.37451 0.99422,-3.98334 1.28817,-6.01145 0.26768,-1.84689 1.07685,-3.8318 0.42939,-5.58207 -0.21068,-0.56953 -0.72714,-1.05578 -1.28817,-1.28817 -1.58682,-0.65728 -3.72358,-0.95273 -5.15268,0 -1.54818,1.03213 -1.84295,3.31699 -2.14695,5.15268 -0.35153,2.1228 -0.64847,4.57857 0.4294,6.44084 0.51702,0.89329 1.57347,1.47355 2.57633,1.71756 1.25936,0.30642 2.90318,0.43993 3.86451,-0.42939 z" style="fill:#000000;fill-opacity:0.12941176;stroke:#000000;stroke-width:0.60114545px;stroke-linecap:butt;stroke-linejoin:miter;stroke-opacity:1;display:inline"/>
      <path sodipodi:nodetypes="ssssssssssss" inkscape:connector-curvature="0" id="path7749" d="m 493.22725,484.18929 c 0.0962,0.91141 -1.4142,1.28213 -1.71756,2.14695 -0.52115,1.48567 0.19236,3.16065 0,4.72329 -0.14421,1.17143 -0.85878,1.71755 -0.85878,3.43511 0,1.71756 0.27003,3.3685 -0.85878,4.2939 -1.10688,0.90743 -2.8626,0 -4.2939,0 -1.00191,0 -3.00572,2.14695 -3.00572,0 0,-2.14695 -0.0663,-3.72256 0,-5.58207 0.0716,-2.00764 -0.0444,-4.0592 0.42939,-6.01145 0.51419,-2.11859 0.94036,-4.5705 2.57633,-6.01146 0.78194,-0.68872 1.98527,-1.06958 3.00573,-0.85878 1.99219,0.41155 4.50975,1.84149 4.72329,3.86451 z" style="fill:#000000;fill-opacity:0.12941176;stroke:#000000;stroke-width:0.60114545px;stroke-linecap:butt;stroke-linejoin:miter;stroke-opacity:1;display:inline"/>
      <path sodipodi:nodetypes="ssssssssssss" inkscape:connector-curvature="0" id="path7755" d="m 537.88377,510.81145 c 1.87433,1.97557 -0.0899,5.45642 -0.42939,8.1584 -0.18197,1.44826 0.19617,3.28512 -0.85878,4.29389 -1.36063,1.30107 -3.6996,0.87952 -5.58206,0.85879 -2.47066,-0.0272 -4.91619,-0.63694 -7.29963,-1.28817 -2.35932,-0.64465 -5.08312,-0.90656 -6.87023,-2.57634 -1.26368,-1.18072 -1.68792,-3.05587 -2.14695,-4.72329 -0.34401,-1.2496 -0.97684,-2.6897 -0.42939,-3.8645 0.43595,-0.93554 1.28817,-1.71756 2.57634,-1.71756 1.28817,0 -2.14695,-0.85878 5.15267,0 7.29962,0.85878 5.42767,0.71545 8.15841,0.85878 2.57279,0.13503 5.95579,-1.86901 7.72901,0 z" style="fill:#000000;fill-opacity:0.12941176;stroke:#000000;stroke-width:0.60114545px;stroke-linecap:butt;stroke-linejoin:miter;stroke-opacity:1;display:inline"/>
      <path sodipodi:nodetypes="sssssssss" inkscape:connector-curvature="0" id="path7757" d="m 642.22545,494.92403 c -0.0621,2.93612 -3.318,5.2704 -6.01146,6.44084 -2.23161,0.96975 -4.86642,0 -7.29962,0 -2.29008,0 -5.15268,2.14695 -6.87024,0 -1.71755,-2.14694 -4.41272,-2.44796 -3.8645,-4.29389 0.63258,-2.13002 4.27945,-1.20225 6.44084,-1.71756 2.70331,-0.64452 6.01145,-0.85878 8.1584,-1.71756 2.14695,-0.85878 4.62119,-2.4345 6.87023,-1.71755 1.25726,0.40079 2.60426,1.68643 2.57635,3.00572 z" style="fill:#000000;fill-opacity:0.12941176;stroke:#000000;stroke-width:0.60114545px;stroke-linecap:butt;stroke-linejoin:miter;stroke-opacity:1;display:inline"/>
      <path sodipodi:nodetypes="sssssss" inkscape:connector-curvature="0" id="path7763" d="m 542.17767,307.28077 c -1.35446,2.19157 -0.68771,5.24615 0,7.72901 0.22277,0.8043 0.4569,2.0726 1.28816,2.14695 1.51544,0.13555 2.34839,-2.06295 3.00573,-3.43512 1.06748,-2.22831 1.37501,-4.83034 1.28817,-7.29962 -0.0207,-0.58978 0.10676,-1.47096 -0.42939,-1.71756 -1.74461,-0.8024 -4.14312,0.94285 -5.15267,2.57634 z" style="fill:#000000;fill-opacity:0.12941176;stroke:#000000;stroke-width:0.60114545px;stroke-linecap:butt;stroke-linejoin:miter;stroke-opacity:1;display:inline"/>
      <path sodipodi:nodetypes="sssssss" inkscape:connector-curvature="0" id="path7765" d="m 507.8265,330.46781 c -0.58522,0.62851 0,1.71756 0,2.57634 0,1.00191 -0.55154,2.16929 0,3.00572 0.60005,0.91002 1.94405,1.53523 3.00572,1.28817 1.28525,-0.29908 2.05743,-1.79244 2.57634,-3.00572 0.56564,-1.32256 1.43199,-3.26245 0.42939,-4.2939 -1.40024,-1.44053 -4.64247,-1.04087 -6.01145,0.42939 z" style="fill:#000000;fill-opacity:0.12941176;stroke:#000000;stroke-width:0.60114545px;stroke-linecap:butt;stroke-linejoin:miter;stroke-opacity:1;display:inline"/>
      <path sodipodi:nodetypes="sssssss" inkscape:connector-curvature="0" id="path7769" d="m 498.37992,332.61476 c -0.7844,1.71138 -0.44229,4.22143 0.85878,5.58206 0.50438,0.52748 1.44844,0.64088 2.14695,0.42939 0.96865,-0.29328 1.75964,-1.21191 2.14695,-2.14694 0.49296,-1.19012 0.42639,-2.64896 0,-3.86451 -0.30336,-0.86481 -0.8141,-1.99304 -1.71756,-2.14695 -1.33111,-0.22675 -2.8725,0.91946 -3.43512,2.14695 z" style="fill:#000000;fill-opacity:0.12941176;stroke:#000000;stroke-width:0.60114545px;stroke-linecap:butt;stroke-linejoin:miter;stroke-opacity:1;display:inline"/>
      <path transform="matrix(0.53894774,0,0,0.52918349,239.02881,142.08008)" inkscape:transform-center-y="-1.4736385" inkscape:transform-center-x="-0.22368245" d="m 593.96971,66.453299 -11.51537,-6.659725 -12.01436,5.710588 2.77533,-13.009737 -9.14373,-9.661667 13.23061,-1.380735 6.36323,-11.681826 5.40164,12.156395 13.07642,2.441902 -9.89222,8.8938 z" inkscape:randomized="0" inkscape:rounded="0" inkscape:flatsided="false" sodipodi:arg2="1.6111123" sodipodi:arg1="0.98279372" sodipodi:r2="10.015931" sodipodi:r1="20.031862" sodipodi:cy="49.785782" sodipodi:cx="582.85803" sodipodi:sides="5" id="path3019-4" style="fill:#000000;fill-opacity:0.32462691;stroke:#000000;stroke-width:1.91360378;stroke-miterlimit:4;stroke-opacity:1;stroke-dasharray:none;display:inline" sodipodi:type="star"/>
      <path transform="matrix(0.53894774,0,0,0.52918349,266.65862,161.51204)" inkscape:transform-center-y="-1.4736385" inkscape:transform-center-x="-0.22368245" d="m 593.96971,66.453299 -11.51537,-6.659725 -12.01436,5.710588 2.77533,-13.009737 -9.14373,-9.661667 13.23061,-1.380735 6.36323,-11.681826 5.40164,12.156395 13.07642,2.441902 -9.89222,8.8938 z" inkscape:randomized="0" inkscape:rounded="0" inkscape:flatsided="false" sodipodi:arg2="1.6111123" sodipodi:arg1="0.98279372" sodipodi:r2="10.015931" sodipodi:r1="20.031862" sodipodi:cy="49.785782" sodipodi:cx="582.85803" sodipodi:sides="5" id="path3019-1" style="fill:#000000;fill-opacity:0.31372549;stroke:#000000;stroke-width:1.91360378;stroke-miterlimit:4;stroke-opacity:1;stroke-dasharray:none;display:inline" sodipodi:type="star"/>
      <path transform="matrix(0.53894774,0,0,0.52918349,293.37756,191.87447)" inkscape:transform-center-y="-1.4736385" inkscape:transform-center-x="-0.22368245" d="m 593.96971,66.453299 -11.51537,-6.659725 -12.01436,5.710588 2.77533,-13.009737 -9.14373,-9.661667 13.23061,-1.380735 6.36323,-11.681826 5.40164,12.156395 13.07642,2.441902 -9.89222,8.8938 z" inkscape:randomized="0" inkscape:rounded="0" inkscape:flatsided="false" sodipodi:arg2="1.6111123" sodipodi:arg1="0.98279372" sodipodi:r2="10.015931" sodipodi:r1="20.031862" sodipodi:cy="49.785782" sodipodi:cx="582.85803" sodipodi:sides="5" id="path3019-56" style="fill:#000000;fill-opacity:0.31372549;stroke:#000000;stroke-width:1.91360378;stroke-miterlimit:4;stroke-opacity:1;stroke-dasharray:none;display:inline" sodipodi:type="star"/>
      <path transform="matrix(0.53894774,0,0,0.52918349,318.085,227.71773)" inkscape:transform-center-y="-1.4736385" inkscape:transform-center-x="-0.22368245" d="m 593.96971,66.453299 -11.51537,-6.659725 -12.01436,5.710588 2.77533,-13.009737 -9.14373,-9.661667 13.23061,-1.380735 6.36323,-11.681826 5.40164,12.156395 13.07642,2.441902 -9.89222,8.8938 z" inkscape:randomized="0" inkscape:rounded="0" inkscape:flatsided="false" sodipodi:arg2="1.6111123" sodipodi:arg1="0.98279372" sodipodi:r2="10.015931" sodipodi:r1="20.031862" sodipodi:cy="49.785782" sodipodi:cx="582.85803" sodipodi:sides="5" id="path3019-56-2" style="fill:#000000;fill-opacity:0.31372549;stroke:#000000;stroke-width:1.91360378;stroke-miterlimit:4;stroke-opacity:1;stroke-dasharray:none;display:inline" sodipodi:type="star"/>
      <path sodipodi:nodetypes="cccccccccsscccc" inkscape:connector-curvature="0" id="path3017" d="m 129.13013,518.2261 199.48117,2.73262 2.73262,-10.93047 -34.00592,-6.07249 C 275.48047,499.037 264.04049,485.18892 264.8502,460.84111 l 79.85319,-293.90833 -8.19786,0 c -37.73764,21.41868 -78.79802,37.6159 -127.82583,41.2929 l -1.82175,6.67974 46.75815,3.33986 c 5.82482,0.41606 17.44041,3.79723 13.35947,19.12834 l -56.1705,211.01889 c -6.33448,28.46415 -18.795,53.29805 -68.31547,56.1705 l -10.62685,1.82174 z" style="fill:#000000;fill-opacity:0.31372549;stroke:#000000;stroke-width:0.60114545px;stroke-linecap:butt;stroke-linejoin:miter;stroke-opacity:1;display:inline"/>
      <path sodipodi:nodetypes="ccscssccssssscccccsssssccccccccccccccccccccccccccccccccc" inkscape:connector-curvature="0" id="path7994-4" d="m 477.58938,393.97417 -0.0521,-9.00454 0.11945,-6.55081 c 0.0198,-1.08902 -48.04,-0.53674 -48.04,-0.53674 0,0 -1.64451,1.43255 -1.82174,2.42899 -0.18503,1.04032 0.15436,2.29856 0.91088,3.03625 0.82618,0.80562 3.33986,0.91087 3.33986,0.91087 l 5.16161,-0.30362 c 0,0 -1.18608,39.67277 -7.89423,57.99224 -0.45374,1.23913 -1.20225,2.3969 -2.12537,3.33987 -0.76582,0.78228 -1.79155,1.26243 -2.73262,1.82174 -1.86801,1.11022 -6.21719,0.90997 -5.76886,3.03625 0.60699,2.87871 5.86659,0.464 8.80511,0.60724 3.53952,0.17255 10.62685,0.30363 10.62685,0.30363 l 10.32322,0 11.84135,0.60725 8.19786,-0.60725 5.46524,-3.64349 c 0,0 1.05954,-3.42783 1.51812,-5.16162 0.45195,-1.70876 1.41956,-3.40602 1.2145,-5.16161 -0.13128,-1.1239 -0.55558,-2.44136 -1.51812,-3.03625 -0.51656,-0.31925 -1.34488,-0.37596 -1.82175,0 -2.04338,1.61099 -0.35167,5.44363 -1.82175,7.59061 -0.90409,1.32038 -3.94711,2.73262 -3.94711,2.73262 l -3.94712,1.82175 -8.50148,1.2145 -11.84135,0 -2.42899,-1.2145 -2.429,-3.03625 1.2145,-6.98335 3.33987,-19.43196 3.03624,-1.2145 8.8051,0 5.76886,0 1.2145,1.2145 0,5.16161 0,3.03625 2.12537,2.12537 2.12538,-2.12537 -0.60726,-11.53773 3.94712,-8.50148 -1.51812,-2.73261 -1.2145,0 -2.73262,4.55436 -2.12537,2.73262 -2.73262,1.21449 -7.89423,0.91088 -4.55436,0 -2.12537,-0.60725 4.55436,-27.32619 7.89423,-1.2145 8.80511,0 5.46523,0.30363 1.51813,3.64349 0.81879,7.91581 c 1.3464,1.1734 2.6928,0.46484 4.0392,-0.3252 z" style="fill:#000000;fill-opacity:0.31372549;stroke:#000000;stroke-width:0.60114545px;stroke-linecap:butt;stroke-linejoin:miter;stroke-opacity:1;display:inline"/>
      <path sodipodi:nodetypes="ccccccscccccccccccccccccccccccccccccccccccccccccccccccc" inkscape:connector-curvature="0" id="path7996" d="m 493.65664,379.31088 10.73474,0.32204 9.12452,-0.10735 4.83064,0 0.64409,1.28817 -0.32205,1.28817 c 0,0 -0.85878,0.10735 -1.39552,0.10735 -0.53673,0 -2.03959,0 -2.03959,0 l -3.32778,0.64408 -1.93225,1.28817 -0.32204,0.75143 -0.64409,3.86451 -6.01145,40.36262 -0.42939,5.79676 0.2147,4.83063 1.71755,3.54247 5.79676,3.64981 8.26575,0.64409 6.76289,-1.61022 4.07921,-3.54246 3.43511,-4.2939 2.57634,-6.65554 2.0396,-11.16413 2.46899,-15.35067 1.39551,-7.51432 c 0.0716,-3.65544 0.0358,-3.85292 0.10735,-5.90411 l 0.2147,-3.75716 -0.10735,-2.36164 -0.2147,-2.0396 -1.50286,-0.64409 -3.11308,0 -1.71755,-0.53673 -0.32204,-1.50286 0.10734,-1.18083 1.61021,-0.21469 6.5482,0.10735 7.62166,0.10734 3.75716,0.10735 0.10735,1.82491 -0.42939,1.07347 c -1.18082,-0.11858 -2.36165,-0.0599 -3.54246,0.10735 -2.23638,0.57254 -2.2556,2.9188 -3.22043,4.50859 l -3.11307,13.63312 -5.79677,32.41891 -4.83063,11.59352 c -3.18643,3.71241 -6.76289,5.47465 -10.52004,6.3335 -4.2939,1.07993 -8.58779,1.59897 -12.88169,0.96613 -4.54516,-0.48189 -8.18369,-2.32371 -11.59352,-4.50859 -2.33263,-2.05217 -3.99411,-5.22293 -5.47472,-8.69514 0.2477,-8.24283 0.72287,-16.40982 1.82491,-24.36786 l 4.18655,-27.58829 c 0.62845,-2.67093 0.19438,-4.12755 -1.18082,-4.50859 l -5.47472,-0.32204 -0.10735,-1.50287 z" style="fill:#000000;fill-opacity:0.31372549;stroke:#000000;stroke-width:0.60114545px;stroke-linecap:butt;stroke-linejoin:miter;stroke-opacity:1;display:inline"/>
      <path inkscape:connector-curvature="0" id="path9170" d="m 565.74578,379.15756 c -1.07831,0.77655 -1.75288,1.76227 -1.22107,3.34387 l 6.2181,1.82223 -8.56633,59.34433 c -0.0738,0.51 0.0816,1.12657 -0.22543,1.54043 -0.28271,0.3811 -0.52507,0.23037 -1.29622,0.60115 -1.60035,0.76946 -4.28069,2.12243 -5.69209,3.23115 -0.46808,0.3677 0.33594,1.82275 0.9205,1.93494 10.65665,2.04525 24.29989,0.0834 24.75968,0.526 l 0.43207,-2.49851 -7.89003,-1.67193 c -1.01268,-0.21422 -2.07457,-1.79338 -1.82222,-2.89302 2.26609,-9.87474 4.14333,-29.28589 6.2181,-29.58763 l 3.49415,1.50287 c 1.88085,1.01845 2.30932,1.75315 2.72394,1.67193 0,0 6.56334,25.09431 16.4,31.8795 3.73066,2.57335 9.20246,2.93974 13.50699,1.52165 0.91824,-0.30251 2.30855,-1.02025 2.14158,-1.97251 -0.19163,-1.0929 -2.05941,-0.86288 -3.08087,-1.29622 l -6.95074,-2.94937 -14.40871,-29.45613 c 19.88025,-10.10569 20.59157,-26.95295 5.2976,-35.37365 l -30.959,-1.22108 z m 14.89714,72.3441 -0.0188,0.0752 c 0.0432,-0.0342 0.0414,-0.0534 0.0188,-0.0752 z m 5.86117,-68.54937 c 1.20657,0.0191 2.43371,0.14188 3.23116,0.16908 2.18936,0.0747 4.44152,0.0709 6.21809,1.35257 2.03796,1.47024 3.0222,3.76867 3.49416,6.23689 0.48555,2.53926 0.0189,5.19751 -0.45086,7.73975 -0.57868,3.13182 -1.05539,6.50988 -2.89301,9.11111 -1.5008,2.12442 -3.80164,3.73401 -6.2181,4.69644 -2.12858,0.84778 -4.55086,0.90599 -6.83803,0.77022 -1.55616,-0.0924 -4.68893,0.48156 -4.54616,-1.07079 1.0323,-11.22432 4.24715,-24.77282 4.0953,-27.48362 -0.0744,-1.32778 1.8965,-1.5535 3.90745,-1.52165 z" style="fill:#000000;fill-opacity:0.31372549;stroke:#000000;stroke-width:0.60114545px;stroke-linecap:butt;stroke-linejoin:miter;stroke-opacity:1;display:inline"/>
      <path transform="matrix(0.53894774,0,0,0.52918349,187.54713,105.67007)" inkscape:transform-center-y="-1.4736385" inkscape:transform-center-x="-0.22368245" d="m 593.96971,66.453299 -11.51537,-6.659725 -12.01436,5.710588 2.77533,-13.009737 -9.14373,-9.661667 13.23061,-1.380735 6.36323,-11.681826 5.40164,12.156395 13.07642,2.441902 -9.89222,8.8938 z" inkscape:randomized="0" inkscape:rounded="0" inkscape:flatsided="false" sodipodi:arg2="1.6111123" sodipodi:arg1="0.98279372" sodipodi:r2="10.015931" sodipodi:r1="20.031862" sodipodi:cy="49.785782" sodipodi:cx="582.85803" sodipodi:sides="5" id="path3019" style="fill:#000000;fill-opacity:0.31372549;stroke:#000000;stroke-width:1.91360378;stroke-miterlimit:4;stroke-opacity:1;stroke-dasharray:none" sodipodi:type="star"/>
      <path transform="matrix(0.53894774,0,0,0.52918349,213.52436,123.25538)" inkscape:transform-center-y="-1.4736385" inkscape:transform-center-x="-0.22368245" d="m 593.96971,66.453299 -11.51537,-6.659725 -12.01436,5.710588 2.77533,-13.009737 -9.14373,-9.661667 13.23061,-1.380735 6.36323,-11.681826 5.40164,12.156395 13.07642,2.441902 -9.89222,8.8938 z" inkscape:randomized="0" inkscape:rounded="0" inkscape:flatsided="false" sodipodi:arg2="1.6111123" sodipodi:arg1="0.98279372" sodipodi:r2="10.015931" sodipodi:r1="20.031862" sodipodi:cy="49.785782" sodipodi:cx="582.85803" sodipodi:sides="5" id="path3019-5" style="fill:#000000;fill-opacity:0.31372549;stroke:#000000;stroke-width:1.91360378;stroke-miterlimit:4;stroke-opacity:1;stroke-dasharray:none" sodipodi:type="star"/>
      <path transform="matrix(0.53894774,0,0,0.52918349,316.79683,494.79808)" inkscape:transform-center-y="-1.4736385" inkscape:transform-center-x="-0.22368245" d="m 593.96971,66.453299 -11.51537,-6.659725 -12.01436,5.710588 2.77533,-13.009737 -9.14373,-9.661667 13.23061,-1.380735 6.36323,-11.681826 5.40164,12.156395 13.07642,2.441902 -9.89222,8.8938 z" inkscape:randomized="0" inkscape:rounded="0" inkscape:flatsided="false" sodipodi:arg2="1.6111123" sodipodi:arg1="0.98279372" sodipodi:r2="10.015931" sodipodi:r1="20.031862" sodipodi:cy="49.785782" sodipodi:cx="582.85803" sodipodi:sides="5" id="path3019-56-7" style="fill:#000000;fill-opacity:0.31372549;stroke:#000000;stroke-width:1.91360378;stroke-miterlimit:4;stroke-opacity:1;stroke-dasharray:none;display:inline" sodipodi:type="star"/>
      <path transform="matrix(0.53894774,0,0,0.52918349,290.60406,527.0023)" inkscape:transform-center-y="-1.4736385" inkscape:transform-center-x="-0.22368245" d="m 593.96971,66.453299 -11.51537,-6.659725 -12.01436,5.710588 2.77533,-13.009737 -9.14373,-9.661667 13.23061,-1.380735 6.36323,-11.681826 5.40164,12.156395 13.07642,2.441902 -9.89222,8.8938 z" inkscape:randomized="0" inkscape:rounded="0" inkscape:flatsided="false" sodipodi:arg2="1.6111123" sodipodi:arg1="0.98279372" sodipodi:r2="10.015931" sodipodi:r1="20.031862" sodipodi:cy="49.785782" sodipodi:cx="582.85803" sodipodi:sides="5" id="path3019-56-23" style="fill:#000000;fill-opacity:0.31372549;stroke:#000000;stroke-width:1.91360378;stroke-miterlimit:4;stroke-opacity:1;stroke-dasharray:none;display:inline" sodipodi:type="star"/>
      <path transform="matrix(0.53894774,0,0,0.52918349,266.55824,556.20079)" inkscape:transform-center-y="-1.4736385" inkscape:transform-center-x="-0.22368245" d="m 593.96971,66.453299 -11.51537,-6.659725 -12.01436,5.710588 2.77533,-13.009737 -9.14373,-9.661667 13.23061,-1.380735 6.36323,-11.681826 5.40164,12.156395 13.07642,2.441902 -9.89222,8.8938 z" inkscape:randomized="0" inkscape:rounded="0" inkscape:flatsided="false" sodipodi:arg2="1.6111123" sodipodi:arg1="0.98279372" sodipodi:r2="10.015931" sodipodi:r1="20.031862" sodipodi:cy="49.785782" sodipodi:cx="582.85803" sodipodi:sides="5" id="path3019-56-70" style="fill:#000000;fill-opacity:0.31372549;stroke:#000000;stroke-width:1.91360378;stroke-miterlimit:4;stroke-opacity:1;stroke-dasharray:none;display:inline" sodipodi:type="star"/>
      <path transform="matrix(0.53894774,0,0,0.52918349,239.5067,578.95844)" inkscape:transform-center-y="-1.4736385" inkscape:transform-center-x="-0.22368245" d="m 593.96971,66.453299 -11.51537,-6.659725 -12.01436,5.710588 2.77533,-13.009737 -9.14373,-9.661667 13.23061,-1.380735 6.36323,-11.681826 5.40164,12.156395 13.07642,2.441902 -9.89222,8.8938 z" inkscape:randomized="0" inkscape:rounded="0" inkscape:flatsided="false" sodipodi:arg2="1.6111123" sodipodi:arg1="0.98279372" sodipodi:r2="10.015931" sodipodi:r1="20.031862" sodipodi:cy="49.785782" sodipodi:cx="582.85803" sodipodi:sides="5" id="path3019-56-8" style="fill:#000000;fill-opacity:0.31372549;stroke:#000000;stroke-width:1.91360378;stroke-miterlimit:4;stroke-opacity:1;stroke-dasharray:none;display:inline" sodipodi:type="star"/>
      <path transform="matrix(0.53894774,0,0,0.52918349,213.74332,599.56914)" inkscape:transform-center-y="-1.4736385" inkscape:transform-center-x="-0.22368245" d="m 593.96971,66.453299 -11.51537,-6.659725 -12.01436,5.710588 2.77533,-13.009737 -9.14373,-9.661667 13.23061,-1.380735 6.36323,-11.681826 5.40164,12.156395 13.07642,2.441902 -9.89222,8.8938 z" inkscape:randomized="0" inkscape:rounded="0" inkscape:flatsided="false" sodipodi:arg2="1.6111123" sodipodi:arg1="0.98279372" sodipodi:r2="10.015931" sodipodi:r1="20.031862" sodipodi:cy="49.785782" sodipodi:cx="582.85803" sodipodi:sides="5" id="path3019-56-76" style="fill:#000000;fill-opacity:0.31372549;stroke:#000000;stroke-width:1.91360378;stroke-miterlimit:4;stroke-opacity:1;stroke-dasharray:none;display:inline" sodipodi:type="star"/>
      <path transform="matrix(0.53894774,0,0,0.52918349,187.55055,615.02717)" inkscape:transform-center-y="-1.4736385" inkscape:transform-center-x="-0.22368245" d="m 593.96971,66.453299 -11.51537,-6.659725 -12.01436,5.710588 2.77533,-13.009737 -9.14373,-9.661667 13.23061,-1.380735 6.36323,-11.681826 5.40164,12.156395 13.07642,2.441902 -9.89222,8.8938 z" inkscape:randomized="0" inkscape:rounded="0" inkscape:flatsided="false" sodipodi:arg2="1.6111123" sodipodi:arg1="0.98279372" sodipodi:r2="10.015931" sodipodi:r1="20.031862" sodipodi:cy="49.785782" sodipodi:cx="582.85803" sodipodi:sides="5" id="path3019-56-73" style="fill:#000000;fill-opacity:0.31372549;stroke:#000000;stroke-width:1.91360378;stroke-miterlimit:4;stroke-opacity:1;stroke-dasharray:none;display:inline" sodipodi:type="star"/>
      <rect rx="1.5214992" y="93.759323" x="500.7663" height="17.913834" width="3.6434834" id="rect3882" style="fill:#000000;fill-opacity:0.31372549;stroke:#000000;stroke-width:1.02194726;stroke-miterlimit:4;stroke-opacity:1;stroke-dasharray:none"/>
      <rect rx="1.5214992" y="108.4851" x="525.9671" height="17.913834" width="3.6434834" id="rect3882-6" style="fill:#000000;fill-opacity:0.31372549;stroke:#000000;stroke-width:1.02194726;stroke-miterlimit:4;stroke-opacity:1;stroke-dasharray:none;display:inline"/>
      <rect rx="1.5214992" y="123.05907" x="551.77515" height="17.913834" width="3.6434834" id="rect3882-5" style="fill:#000000;fill-opacity:0.31372549;stroke:#000000;stroke-width:1.02194726;stroke-miterlimit:4;stroke-opacity:1;stroke-dasharray:none;display:inline"/>
      <rect rx="1.5214992" y="144.31277" x="578.79773" height="17.913834" width="3.6434834" id="rect3882-63" style="fill:#000000;fill-opacity:0.31372549;stroke:#000000;stroke-width:1.02194726;stroke-miterlimit:4;stroke-opacity:1;stroke-dasharray:none;display:inline"/>
      <rect rx="1.5214992" y="169.20996" x="604.30219" height="24.721277" width="3.6434834" id="rect3882-0" style="fill:#000000;fill-opacity:0.31372549;stroke:#000000;stroke-width:1.02194726;stroke-miterlimit:4;stroke-opacity:1;stroke-dasharray:none;display:inline"/>
      <rect rx="1.5214992" y="199.87602" x="631.02112" height="29.932976" width="3.6434834" id="rect3882-2" style="fill:#000000;fill-opacity:0.31372549;stroke:#000000;stroke-width:1.02194726;stroke-miterlimit:4;stroke-opacity:1;stroke-dasharray:none;display:inline"/>
      <rect rx="1.5214992" y="150.68889" x="499.24814" height="93.709435" width="3.6434834" id="rect3882-67" style="fill:#000000;fill-opacity:0.31372549;stroke:#000000;stroke-width:1.02194726;stroke-miterlimit:4;stroke-opacity:1;stroke-dasharray:none;display:inline"/>
      <rect rx="1.5214992" y="164.35197" x="526.57434" height="23.510344" width="3.6434834" id="rect3882-07" style="fill:#000000;fill-opacity:0.31372549;stroke:#000000;stroke-width:1.02194726;stroke-miterlimit:4;stroke-opacity:1;stroke-dasharray:none;display:inline"/>
      <rect rx="1.5214992" y="657.13422" x="499.55179" height="17.913834" width="3.6434834" id="rect3882-3" style="fill:#000000;fill-opacity:0.31372549;stroke:#000000;stroke-width:1.02194726;stroke-miterlimit:4;stroke-opacity:1;stroke-dasharray:none;display:inline"/>
      <rect rx="1.5214992" y="643.16754" x="527.18164" height="17.913834" width="3.6434834" id="rect3882-03" style="fill:#000000;fill-opacity:0.31372549;stroke:#000000;stroke-width:1.02194726;stroke-miterlimit:4;stroke-opacity:1;stroke-dasharray:none;display:inline"/>
      <rect rx="1.5214992" y="621.91376" x="551.77521" height="24.476683" width="3.6434834" id="rect3882-673" style="fill:#000000;fill-opacity:0.31372549;stroke:#000000;stroke-width:1.02194726;stroke-miterlimit:4;stroke-opacity:1;stroke-dasharray:none;display:inline"/>
      <rect rx="1.5214992" y="598.53473" x="579.10138" height="26.640497" width="3.6434834" id="rect3882-1" style="fill:#000000;fill-opacity:0.31372549;stroke:#000000;stroke-width:1.02194726;stroke-miterlimit:4;stroke-opacity:1;stroke-dasharray:none;display:inline"/>
      <rect rx="1.5214992" y="570.29767" x="603.08765" height="27.507788" width="3.6434834" id="rect3882-53" style="fill:#000000;fill-opacity:0.31372549;stroke:#000000;stroke-width:1.02194726;stroke-miterlimit:4;stroke-opacity:1;stroke-dasharray:none;display:inline"/>
      <rect rx="1.5214992" y="537.20264" x="629.80658" height="29.977392" width="3.6434834" id="rect3882-38" style="fill:#000000;fill-opacity:0.31372549;stroke:#000000;stroke-width:1.02194726;stroke-miterlimit:4;stroke-opacity:1;stroke-dasharray:none;display:inline"/>
      <rect ry="1.2022909" rx="1.5214992" y="521.41418" x="500.15903" height="94.050308" width="3.6434834" id="rect3882-28" style="fill:#000000;fill-opacity:0.31372549;stroke:#000000;stroke-width:1.02194726;stroke-miterlimit:4;stroke-opacity:1;stroke-dasharray:none;display:inline"/>
      <rect rx="1.5214992" y="548.13312" x="526.87799" height="54.649323" width="3.6434834" id="rect3882-64" style="fill:#000000;fill-opacity:0.31372549;stroke:#000000;stroke-width:1.02194726;stroke-miterlimit:4;stroke-opacity:1;stroke-dasharray:none;display:inline"/>
      <rect rx="1.5214992" y="522.93231" x="550.56067" height="61.936306" width="3.6434834" id="rect3882-9" style="fill:#000000;fill-opacity:0.31372549;stroke:#000000;stroke-width:1.02194726;stroke-miterlimit:4;stroke-opacity:1;stroke-dasharray:none;display:inline"/>
      <rect rx="1.5214992" y="522.93231" x="579.10132" height="38.597664" width="3.6434834" id="rect3882-57" style="fill:#000000;fill-opacity:0.31372549;stroke:#000000;stroke-width:1.02194726;stroke-miterlimit:4;stroke-opacity:1;stroke-dasharray:none;display:inline"/>
    </g>
  </g>
  <metadata>
    <rdf:RDF>
      <cc:Work>
        <dc:format>image/svg+xml</dc:format>
        <dc:type rdf:resource="http://purl.org/dc/dcmitype/StillImage"/>
        <cc:license rdf:resource="http://creativecommons.org/licenses/publicdomain/"/>
        <dc:publisher>
          <cc:Agent rdf:about="http://openclipart.org/">
            <dc:title>Open Clip Art Library</dc:title>
          </cc:Agent>
        </dc:publisher>
        <dc:title>1 euro</dc:title>
        <dc:date>2011-07-06T16:19:21</dc:date>
        <dc:description>coin of 1 euro</dc:description>
        <dc:source>http://openclipart.org/detail/148465/1-euro-by-lolonene</dc:source>
        <dc:creator>
          <cc:Agent>
            <dc:title>lolonene</dc:title>
          </cc:Agent>
        </dc:creator>
        <dc:subject>
          <rdf:Bag>
            <rdf:li>1</rdf:li>
            <rdf:li>clip art</rdf:li>
            <rdf:li>clipart</rdf:li>
            <rdf:li>coin</rdf:li>
            <rdf:li>euro</rdf:li>
            <rdf:li>europe</rdf:li>
            <rdf:li>france</rdf:li>
            <rdf:li>money</rdf:li>
          </rdf:Bag>
        </dc:subject>
      </cc:Work>
      <cc:License rdf:about="http://creativecommons.org/licenses/publicdomain/">
        <cc:permits rdf:resource="http://creativecommons.org/ns#Reproduction"/>
        <cc:permits rdf:resource="http://creativecommons.org/ns#Distribution"/>
        <cc:permits rdf:resource="http://creativecommons.org/ns#DerivativeWorks"/>
      </cc:License>
    </rdf:RDF>
  </metadata>
</svg>
