<?xml version="1.0" standalone="no"?>
<!DOCTYPE svg PUBLIC "-//W3C//DTD SVG 20010904//EN"
 "http://www.w3.org/TR/2001/REC-SVG-20010904/DTD/svg10.dtd">
<svg version="1.0" xmlns="http://www.w3.org/2000/svg"
 width="1056.000000pt" height="1056.000000pt" viewBox="0 0 1056.000000 1056.000000"
 preserveAspectRatio="xMidYMid meet">
<metadata>
Created by potrace 1.11, written by Peter Selinger 2001-2013
</metadata>
<g transform="translate(0.000000,1056.000000) scale(0.100000,-0.100000)"
fill="#000000" stroke="none">
<path d="M5166 10083 c-3 -3 -43 -7 -89 -9 -45 -1 -122 -5 -172 -9 -49 -4
-110 -9 -135 -10 -25 -2 -45 -4 -45 -5 0 -1 -16 -4 -35 -6 -63 -6 -114 -13
-149 -19 -19 -4 -53 -9 -75 -11 -23 -3 -49 -7 -58 -10 -21 -6 -54 -13 -93 -19
-48 -7 -316 -71 -396 -95 -41 -13 -81 -24 -89 -25 -8 -2 -16 -4 -17 -5 -2 -2
-6 -3 -10 -5 -5 -1 -16 -5 -25 -9 -9 -4 -22 -8 -30 -10 -7 -1 -19 -5 -25 -9
-7 -5 -17 -6 -22 -2 -5 3 -12 1 -15 -4 -3 -5 -18 -12 -33 -16 -27 -6 -228 -83
-288 -110 -16 -7 -64 -27 -105 -45 -41 -18 -93 -42 -115 -53 -22 -12 -42 -22
-45 -22 -3 0 -25 -12 -50 -25 -25 -13 -48 -23 -52 -22 -3 1 -12 -5 -18 -13 -7
-8 -16 -15 -21 -15 -4 0 -47 -22 -94 -49 -47 -27 -85 -46 -85 -43 0 4 -4 3 -8
-3 -9 -12 -69 -55 -77 -55 -3 0 -33 -18 -66 -40 -33 -22 -65 -40 -70 -40 -5 0
-9 -4 -9 -8 0 -5 -12 -15 -27 -23 -35 -19 -246 -172 -310 -226 -12 -10 -35
-28 -50 -40 -29 -22 -36 -28 -137 -116 -86 -74 -381 -370 -446 -447 -30 -35
-63 -72 -73 -82 -9 -10 -15 -18 -12 -18 2 0 -14 -19 -35 -42 -22 -24 -40 -49
-40 -55 0 -7 -3 -13 -7 -13 -5 0 -30 -30 -58 -68 -27 -37 -53 -68 -57 -70 -4
-2 -8 -9 -8 -16 0 -7 -9 -21 -20 -31 -11 -10 -20 -24 -20 -31 0 -7 -4 -14 -9
-16 -7 -3 -110 -154 -137 -203 -6 -11 -34 -60 -63 -108 -28 -49 -51 -92 -51
-97 0 -4 -7 -13 -15 -20 -8 -7 -15 -21 -15 -30 0 -10 -4 -20 -9 -22 -7 -2
-109 -204 -116 -228 -1 -3 -16 -36 -33 -73 -18 -38 -32 -73 -32 -77 0 -5 -7
-21 -15 -37 -9 -15 -21 -41 -27 -58 -6 -16 -12 -32 -13 -35 -1 -3 -6 -20 -10
-37 -4 -18 -12 -33 -17 -33 -6 0 -8 -7 -4 -15 3 -8 1 -15 -5 -15 -6 0 -8 -4
-5 -8 2 -4 -1 -21 -9 -37 -7 -17 -21 -55 -30 -85 -9 -30 -19 -62 -22 -70 -3
-8 -7 -19 -8 -25 -2 -5 -12 -41 -24 -78 -11 -38 -18 -73 -15 -78 3 -5 0 -9 -5
-9 -6 0 -10 -3 -10 -7 1 -5 0 -10 -1 -13 -1 -3 -3 -12 -5 -20 -1 -8 -11 -51
-20 -95 -10 -44 -20 -89 -21 -100 -1 -11 -3 -20 -4 -20 -1 0 -4 -11 -7 -25 -7
-38 -11 -55 -13 -55 -1 0 -3 -16 -5 -35 -2 -19 -6 -46 -9 -60 -7 -30 -17 -101
-31 -215 -3 -27 -8 -63 -10 -80 -27 -207 -27 -751 1 -970 2 -22 6 -60 8 -85 2
-25 6 -52 9 -60 3 -8 5 -22 5 -30 1 -17 10 -95 12 -95 1 0 3 -11 6 -25 6 -39
12 -72 19 -105 3 -16 10 -55 16 -85 6 -30 14 -71 19 -90 5 -19 12 -48 16 -65
4 -16 8 -34 10 -40 2 -5 5 -19 8 -30 34 -137 144 -472 157 -481 5 -3 7 -10 3
-15 -3 -6 2 -19 12 -30 9 -10 14 -19 11 -19 -6 0 9 -39 49 -128 13 -29 24 -54
24 -56 0 -8 99 -212 106 -219 4 -4 9 -13 10 -21 2 -15 144 -268 154 -276 4 -3
10 -15 14 -27 4 -13 12 -23 17 -23 6 0 7 -4 4 -10 -3 -5 -1 -10 4 -10 6 0 11
-7 11 -15 0 -8 5 -15 10 -15 6 0 10 -6 10 -14 0 -8 3 -16 8 -18 4 -1 23 -29
42 -61 19 -31 38 -57 42 -57 4 0 8 -5 8 -11 0 -11 20 -40 72 -103 16 -19 28
-38 28 -44 0 -6 3 -12 8 -14 4 -1 23 -23 42 -48 48 -61 63 -80 78 -95 6 -8 12
-18 12 -24 0 -6 4 -11 8 -11 5 0 32 -29 61 -64 28 -36 103 -117 165 -180 62
-64 110 -118 108 -121 -3 -3 -1 -5 5 -5 5 0 42 -30 81 -67 39 -38 92 -86 118
-108 26 -22 54 -47 63 -55 9 -8 39 -33 66 -55 28 -22 56 -45 63 -52 7 -7 16
-13 20 -13 4 0 22 -14 39 -31 18 -16 33 -27 33 -24 0 4 6 0 13 -7 14 -14 25
-22 122 -91 105 -75 364 -236 435 -270 14 -6 27 -14 30 -17 7 -8 333 -170 342
-170 4 0 33 -12 65 -26 101 -46 116 -52 238 -97 112 -41 190 -69 208 -73 4 -1
10 -3 15 -4 4 -1 10 -2 14 -1 4 0 19 -6 34 -14 15 -8 31 -12 36 -9 5 3 14 1
21 -4 7 -5 36 -15 65 -22 28 -6 55 -16 58 -21 3 -5 9 -7 14 -4 4 3 36 -2 69
-11 33 -8 70 -17 81 -20 11 -2 28 -6 38 -8 47 -11 231 -46 262 -50 19 -2 46
-7 60 -10 14 -4 48 -9 75 -11 28 -3 75 -8 105 -12 30 -3 65 -7 78 -7 12 -1 22
-3 22 -6 0 -3 27 -5 60 -5 33 0 60 -4 60 -10 0 -7 3 -7 8 0 9 12 32 18 32 8 0
-5 43 -8 95 -8 52 0 95 -4 95 -8 0 -4 8 -4 17 2 11 6 24 6 35 0 10 -5 18 -6
18 -2 0 9 78 9 87 0 3 -4 13 -2 22 3 10 5 23 5 31 0 8 -5 18 -6 24 -3 5 4 46
8 90 9 114 4 231 12 296 20 30 4 69 8 85 10 17 1 30 3 30 4 0 1 15 3 34 5 36
4 85 11 136 20 17 3 46 8 65 11 80 14 100 18 175 33 54 11 259 63 313 80 18 5
33 10 35 10 3 0 29 7 69 20 20 7 45 14 55 16 24 6 133 43 158 54 43 19 160 61
165 59 3 -1 19 5 35 14 30 16 66 32 140 64 22 9 92 42 155 72 63 31 118 56
122 56 4 1 13 7 19 14 7 6 19 12 26 12 7 0 13 4 13 9 0 8 21 17 44 19 5 0 12
4 15 9 3 4 23 17 44 28 20 11 37 23 37 27 0 5 3 7 8 6 4 -1 40 18 80 42 40 25
81 50 91 55 36 20 106 70 109 78 2 4 9 7 16 7 7 0 21 8 32 18 10 10 41 33 69
52 27 19 60 43 73 55 13 11 25 19 28 18 2 -2 12 5 22 15 10 9 36 31 56 47 40
31 119 98 142 118 7 7 34 30 60 52 26 22 71 63 99 90 29 28 73 69 98 93 26 23
45 42 43 42 -2 0 22 26 53 58 121 126 333 375 365 431 11 19 16 25 56 72 16
20 30 42 30 48 0 6 7 14 15 17 8 4 15 10 15 15 0 5 16 32 35 59 19 27 35 54
35 59 0 5 3 11 8 13 7 3 92 135 92 143 0 1 18 33 40 69 22 36 40 68 40 72 0 3
9 17 20 31 11 14 17 29 14 34 -3 5 -1 9 4 9 8 0 23 35 21 49 0 2 3 7 9 10 7 5
112 215 112 226 0 2 14 33 30 68 17 36 30 72 30 81 0 9 4 16 9 16 5 0 11 14
15 31 3 17 13 46 22 64 8 18 16 39 18 47 1 7 4 18 8 23 5 9 65 190 74 225 2 8
20 71 39 139 19 68 32 127 29 132 -3 5 0 9 7 9 7 0 10 3 6 6 -3 3 -2 16 3 28
4 13 11 39 14 59 3 20 11 58 17 84 6 27 12 64 14 83 2 19 4 35 5 35 5 0 26
144 45 315 15 134 20 259 20 490 -1 273 -7 391 -31 560 -3 19 -7 53 -10 75 -2
22 -6 51 -9 65 -13 90 -18 117 -22 135 -2 11 -6 34 -9 50 -2 17 -9 48 -14 70
-6 22 -12 51 -15 65 -8 42 -29 129 -39 165 -2 6 -6 24 -10 40 -8 32 -94 309
-104 335 -3 8 -6 17 -7 20 -9 26 -18 48 -26 62 -5 10 -9 27 -9 38 0 11 -4 20
-10 20 -5 0 -10 6 -10 13 0 13 -49 138 -77 197 -10 19 -16 38 -15 42 1 3 -5
12 -13 18 -8 7 -15 18 -15 26 0 17 -107 226 -190 370 -64 111 -250 395 -276
421 -8 8 -14 17 -14 21 0 4 -14 22 -30 41 -17 18 -30 37 -30 40 0 3 -10 17
-23 31 -12 14 -38 45 -57 70 -19 25 -44 54 -55 66 -11 12 -40 45 -65 75 -55
67 -391 402 -449 448 -24 19 -49 40 -55 46 -6 6 -47 40 -91 75 -44 36 -81 68
-83 73 -2 4 -10 7 -17 7 -7 0 -15 3 -17 8 -4 10 -69 59 -148 112 -36 24 -69
48 -75 52 -5 5 -53 35 -105 68 -52 33 -100 64 -107 70 -7 5 -19 10 -28 10 -8
0 -15 4 -15 8 0 10 -50 37 -62 34 -5 -1 -8 2 -8 6 0 4 -51 34 -112 66 -62 32
-120 62 -128 66 -19 11 -133 65 -140 66 -5 1 -98 42 -145 64 -60 28 -377 144
-427 156 -10 2 -26 6 -35 8 -10 2 -31 9 -48 16 -25 9 -75 23 -165 44 -8 2 -35
9 -60 16 -25 7 -54 14 -64 16 -11 2 -65 13 -120 25 -125 26 -133 27 -261 45
-22 3 -51 8 -65 10 -41 7 -133 17 -167 18 -18 0 -33 3 -33 6 0 3 -27 5 -60 5
-33 0 -60 4 -60 10 0 7 -3 7 -8 0 -9 -12 -32 -18 -32 -7 0 4 -37 7 -83 6 -45
0 -88 4 -94 9 -8 6 -13 6 -13 0 0 -11 -29 -11 -47 0 -6 4 -14 3 -18 -3 -4 -7
-12 -7 -25 0 -13 7 -21 7 -25 0 -4 -7 -13 -7 -26 0 -10 6 -19 7 -19 2 0 -10
-30 -9 -46 1 -6 3 -14 4 -18 0z"/>
</g>
</svg>
